<svg xmlns="http://www.w3.org/2000/svg" xmlns:xlink="http://www.w3.org/1999/xlink" width="584" height="198" version="1.1" viewBox="0 0 584 198"><title>03 Games</title><defs><path id="path-1" d="M20,3.33333333 C13.55,3.33333333 8.33333333,8.55 8.33333333,15 L8.33333333,25 C8.33333333,31.45 13.55,36.6666667 20,36.6666667 C26.45,36.6666667 31.6666667,31.45 31.6666667,25 L31.6666667,15 C31.6666667,8.55 26.45,3.33333333 20,3.33333333 Z M28.3333333,15 L28.3333333,16.8166667 L21.6666667,16.8166667 L21.6666667,6.83333333 C25.4666667,7.61666667 28.3333333,10.9833333 28.3333333,15 Z M18.3333333,6.83333333 L18.3333333,16.8166667 L11.6666667,16.8166667 L11.6666667,15 C11.6666667,10.9833333 14.5333333,7.61666667 18.3333333,6.83333333 Z M20,33.3333333 C15.4,33.3333333 11.6666667,29.6 11.6666667,25 L11.6666667,20.15 L28.3333333,20.15 L28.3333333,25 C28.3333333,29.6 24.6,33.3333333 20,33.3333333 Z"/><path id="path-3" d="M33.3333333,11.6666667 L33.3333333,28.3333333 L6.66666667,28.3333333 L6.66666667,11.6666667 L33.3333333,11.6666667 L33.3333333,11.6666667 Z M33.3333333,8.33333333 L6.66666667,8.33333333 C4.83333333,8.33333333 3.35,9.83333333 3.35,11.6666667 L3.33333333,28.3333333 C3.33333333,30.1666667 4.83333333,31.6666667 6.66666667,31.6666667 L33.3333333,31.6666667 C35.1666667,31.6666667 36.6666667,30.1666667 36.6666667,28.3333333 L36.6666667,11.6666667 C36.6666667,9.83333333 35.1666667,8.33333333 33.3333333,8.33333333 L33.3333333,8.33333333 Z M18.3333333,13.3333333 L21.6666667,13.3333333 L21.6666667,16.6666667 L18.3333333,16.6666667 L18.3333333,13.3333333 Z M18.3333333,18.3333333 L21.6666667,18.3333333 L21.6666667,21.6666667 L18.3333333,21.6666667 L18.3333333,18.3333333 Z M13.3333333,13.3333333 L16.6666667,13.3333333 L16.6666667,16.6666667 L13.3333333,16.6666667 L13.3333333,13.3333333 Z M13.3333333,18.3333333 L16.6666667,18.3333333 L16.6666667,21.6666667 L13.3333333,21.6666667 L13.3333333,18.3333333 Z M8.33333333,18.3333333 L11.6666667,18.3333333 L11.6666667,21.6666667 L8.33333333,21.6666667 L8.33333333,18.3333333 Z M8.33333333,13.3333333 L11.6666667,13.3333333 L11.6666667,16.6666667 L8.33333333,16.6666667 L8.33333333,13.3333333 Z M13.3333333,23.3333333 L26.6666667,23.3333333 L26.6666667,26.6666667 L13.3333333,26.6666667 L13.3333333,23.3333333 Z M23.3333333,18.3333333 L26.6666667,18.3333333 L26.6666667,21.6666667 L23.3333333,21.6666667 L23.3333333,18.3333333 Z M23.3333333,13.3333333 L26.6666667,13.3333333 L26.6666667,16.6666667 L23.3333333,16.6666667 L23.3333333,13.3333333 Z M28.3333333,18.3333333 L31.6666667,18.3333333 L31.6666667,21.6666667 L28.3333333,21.6666667 L28.3333333,18.3333333 Z M28.3333333,13.3333333 L31.6666667,13.3333333 L31.6666667,16.6666667 L28.3333333,16.6666667 L28.3333333,13.3333333 Z"/><path id="path-5" d="M35,10 L5,10 C3.16666667,10 1.66666667,11.5 1.66666667,13.3333333 L1.66666667,26.6666667 C1.66666667,28.5 3.16666667,30 5,30 L35,30 C36.8333333,30 38.3333333,28.5 38.3333333,26.6666667 L38.3333333,13.3333333 C38.3333333,11.5 36.8333333,10 35,10 Z M35,26.6666667 L5,26.6666667 L5,13.3333333 L35,13.3333333 L35,26.6666667 Z M10,25 L13.3333333,25 L13.3333333,21.6666667 L16.6666667,21.6666667 L16.6666667,18.3333333 L13.3333333,18.3333333 L13.3333333,15 L10,15 L10,18.3333333 L6.66666667,18.3333333 L6.66666667,21.6666667 L10,21.6666667 L10,25 Z M24.1666667,25 C25.5473785,25 26.6666667,23.8807119 26.6666667,22.5 C26.6666667,21.1192881 25.5473785,20 24.1666667,20 C22.7859548,20 21.6666667,21.1192881 21.6666667,22.5 C21.6666667,23.8807119 22.7859548,25 24.1666667,25 Z M30.8333333,20 C32.2140452,20 33.3333333,18.8807119 33.3333333,17.5 C33.3333333,16.1192881 32.2140452,15 30.8333333,15 C29.4526215,15 28.3333333,16.1192881 28.3333333,17.5 C28.3333333,18.8807119 29.4526215,20 30.8333333,20 Z"/><path id="path-7" d="M31.6666667,20 L28.3333333,20 L28.3333333,25 L23.3333333,25 L23.3333333,28.3333333 L31.6666667,28.3333333 L31.6666667,20 Z M11.6666667,15 L16.6666667,15 L16.6666667,11.6666667 L8.33333333,11.6666667 L8.33333333,20 L11.6666667,20 L11.6666667,15 Z M35,5 L5,5 C3.16666667,5 1.66666667,6.5 1.66666667,8.33333333 L1.66666667,31.6666667 C1.66666667,33.5 3.16666667,35 5,35 L35,35 C36.8333333,35 38.3333333,33.5 38.3333333,31.6666667 L38.3333333,8.33333333 C38.3333333,6.5 36.8333333,5 35,5 Z M35,31.6833333 L5,31.6833333 L5,8.31666667 L35,8.31666667 L35,31.6833333 Z"/><filter id="filter-9" width="106.3%" height="111.5%" x="-3.1%" y="-5.8%" filterUnits="objectBoundingBox"><feOffset dx="0" dy="3" in="SourceAlpha" result="shadowOffsetOuter1"/><feGaussianBlur in="shadowOffsetOuter1" result="shadowBlurOuter1" stdDeviation="1"/><feColorMatrix in="shadowBlurOuter1" result="shadowMatrixOuter1" type="matrix" values="0 0 0 0 0 0 0 0 0 0 0 0 0 0 0 0 0 0 0.3 0"/><feMerge><feMergeNode in="shadowMatrixOuter1"/><feMergeNode in="SourceGraphic"/></feMerge></filter><rect id="path-10" width="264" height="150" x="0" y=".944"/><rect id="path-12" width="264" height="143.583" x="1" y=".417"/><linearGradient id="linearGradient-14" x1="50%" x2="50%" y1="1.789%" y2="88.055%"><stop offset="0%" stop-color="#DADCE0"/><stop offset="100%" stop-color="#80868B"/></linearGradient><linearGradient id="linearGradient-15" x1="50%" x2="50%" y1="1.789%" y2="146.717%"><stop offset="0%" stop-color="#FCC934"/><stop offset="100%" stop-color="#F9AB00"/></linearGradient><linearGradient id="linearGradient-16" x1="100%" x2="-15.371%" y1="18.931%" y2="93.314%"><stop offset="0%" stop-color="#FFF"/><stop offset="100%" stop-color="#E8EAED"/></linearGradient><linearGradient id="linearGradient-17" x1="100%" x2="-15.371%" y1="18.559%" y2="93.832%"><stop offset="0%" stop-color="#FFF"/><stop offset="100%" stop-color="#E8EAED"/></linearGradient><filter id="filter-18" width="123.5%" height="180%" x="-11.8%" y="-40%" filterUnits="objectBoundingBox"><feGaussianBlur in="SourceGraphic" stdDeviation="4.813"/></filter><linearGradient id="linearGradient-19" x1="50%" x2="50%" y1="1.95%" y2="100%"><stop offset="0%" stop-color="#D2E3FC"/><stop offset="100%" stop-color="#FFF"/></linearGradient><rect id="path-20" width="264" height="60.963" x="1" y="-6"/><linearGradient id="linearGradient-22" x1="50%" x2="50%" y1="0%" y2="100%"><stop offset="0%" stop-color="#F8F9FA"/><stop offset="100%" stop-color="#FBBC04"/></linearGradient><linearGradient id="linearGradient-23" x1="50%" x2="50%" y1="0%" y2="100%"><stop offset="0%" stop-color="#9AA0A6"/><stop offset="100%" stop-color="#3C4043"/></linearGradient><linearGradient id="linearGradient-24" x1="50%" x2="50%" y1="110.675%" y2="29.331%"><stop offset="0%" stop-color="#BDC1C6"/><stop offset="100%" stop-color="#E8EAED"/></linearGradient></defs><g id="Illustrations" fill="none" fill-rule="evenodd" stroke="none" stroke-width="1"><g id="03-Games"><g transform="translate(-218.000000, -30.000000) translate(218.000000, 38.000000)"><g id="Icons" transform="translate(0.000000, 24.000000)"><circle id="Oval" cx="134" cy="30" r="10" fill="#8AB4F8"/><circle id="Oval-Copy" cx="506" cy="30" r="10" fill="#8AB4F8"/><circle id="Oval-Copy-3" cx="106" cy="30" r="10" fill="#8AB4F8"/><circle id="Oval-Copy-9" cx="478" cy="30" r="10" fill="#8AB4F8"/><circle id="Oval-Copy-6" cx="133" cy="103" r="10" fill="#8AB4F8"/><circle id="Oval-Copy-11" cx="478" cy="103" r="10" fill="#8AB4F8"/><circle id="Oval-Copy-7" cx="78" cy="30" r="10" fill="#8AB4F8"/><circle id="Oval-Copy-10" cx="450" cy="30" r="10" fill="#8AB4F8"/><circle id="Oval-Copy-8" cx="105" cy="103" r="10" fill="#8AB4F8"/><circle id="Oval-Copy-12" cx="450" cy="103" r="10" fill="#8AB4F8"/><circle id="Oval-Copy-2" cx="554" cy="30" r="30" fill="#1A73E8"/><circle id="Oval-Copy-3" cx="526" cy="103" r="30" fill="#1A73E8"/><circle id="Oval-Copy-4" cx="57" cy="103" r="30" fill="#1A73E8"/><circle id="Oval-Copy-5" cx="30" cy="30" r="30" fill="#1A73E8"/><g id="hardware/mouse_24px" transform="translate(534.000000, 10.000000)"><mask id="mask-2" fill="#fff"><use xlink:href="#path-1"/></mask><g id="Group" fill="#FFF" fill-rule="nonzero" mask="url(#mask-2)"><g id="↪︎-Icon-color"><rect id="_Color/01_Grey/000-White" width="40" height="40" x="0" y="0"/></g></g></g><g id="hardware/keyboard_24px" transform="translate(506.000000, 83.000000)"><mask id="mask-4" fill="#fff"><use xlink:href="#path-3"/></mask><g id="Group" fill="#FFF" fill-rule="nonzero" mask="url(#mask-4)"><g id="↪︎-Icon-color"><rect id="_Color/01_Grey/000-White" width="40" height="40" x="0" y="0"/></g></g></g><g id="hardware/videogame_asset_24px" transform="translate(37.000000, 83.000000)"><mask id="mask-6" fill="#fff"><use xlink:href="#path-5"/></mask><g id="Group" fill="#FFF" fill-rule="nonzero" mask="url(#mask-6)"><g id="↪︎-Icon-color"><rect id="_Color/01_Grey/000-White" width="40" height="40" x="0" y="0"/></g></g></g><g id="action/aspect_ratio_24px" transform="translate(10.000000, 10.000000)"><mask id="mask-8" fill="#fff"><use xlink:href="#path-7"/></mask><g id="Group" fill="#FFF" fill-rule="nonzero" mask="url(#mask-8)"><g id="↪︎-Icon-color"><rect id="_Color/01_Grey/000-White" width="40" height="40" x="0" y="0"/></g></g></g></g><g id="Laptop-Frame" filter="url(#filter-9)" transform="translate(127.000000, 0.000000)"><path id="frame-bottom" fill="#E8EAED" fill-rule="nonzero" d="M300.703586,0 L29.2964142,0 C26.9235702,0 25,1.92986653 25,4.31047754 L25,175 L305,175 L305,4.31047754 C305,1.92986653 303.07643,0 300.703586,0 Z M296.8977,162.279103 L32.8976996,162.279103 L32.8976996,13.4352351 L296.8977,13.4352351 L296.8977,162.279103 Z"/><g id="DESIGN-HERE" transform="translate(33.000000, 12.000000)"><mask id="mask-11" fill="#fff"><use xlink:href="#path-10"/></mask><use id="Mask" fill="#5F6368" xlink:href="#path-10"/><g id="car-game" mask="url(#mask-11)"><g transform="translate(-1.000000, 7.000000)"><mask id="mask-13" fill="#fff"><use xlink:href="#path-12"/></mask><use id="Mask" fill="#E8EAED" fill-rule="evenodd" stroke="none" xlink:href="#path-12"/><rect id="Rectangle-Copy-21" width="267.21" height="5.615" x="-2.21" y="66.193" fill="#F8F9FA" fill-rule="evenodd" stroke="none" mask="url(#mask-13)"/><rect id="Rectangle-Copy-30" width="264.802" height="3.209" x=".198" y="58.973" fill="#F8F9FA" fill-rule="evenodd" stroke="none" mask="url(#mask-13)"/><rect id="Rectangle-Copy-22" width="264.802" height="12.032" x=".198" y="78.225" fill="#F8F9FA" fill-rule="evenodd" stroke="none" mask="url(#mask-13)"/><rect id="Rectangle-Copy-26" width="264.802" height="17.647" x=".198" y="98.278" fill="#F8F9FA" fill-rule="evenodd" stroke="none" mask="url(#mask-13)"/><rect id="Rectangle-Copy-23" width="264.802" height="15.241" x=".198" y="128.759" fill="#F8F9FA" fill-rule="evenodd" stroke="none" mask="url(#mask-13)"/><polygon id="Rectangle" fill="url(#linearGradient-14)" fill-rule="evenodd" stroke="none" points="115.748 55.765 149.45 55.765 264.198 144 .198 144" mask="url(#mask-13)"/><polygon id="Rectangle-Copy-27" fill="url(#linearGradient-15)" fill-rule="evenodd" stroke="none" points="131.682 55.765 133.401 55.765 138.216 144 126.179 144" mask="url(#mask-13)"/><polygon id="Rectangle-Copy-28" fill="url(#linearGradient-16)" fill-rule="evenodd" stroke="none" points="114.832 55.765 116.55 55.765 12.223 144 .198 144" mask="url(#mask-13)"/><polygon id="Rectangle-Copy-29" fill="url(#linearGradient-17)" fill-rule="evenodd" stroke="none" points="263.282 55.765 265 55.765 161.363 144 149.337 144" mask="url(#mask-13)" transform="translate(207.168363, 99.882353) scale(-1, 1) translate(-207.168363, -99.882353)"/><ellipse id="shadow" cx="133" cy="115.524" fill="#3C4043" fill-opacity=".75" fill-rule="evenodd" stroke="none" filter="url(#filter-18)" mask="url(#mask-13)" rx="61.386" ry="18.048"/><mask id="mask-21" fill="#fff"><use xlink:href="#path-20"/></mask><use id="Rectangle" fill="url(#linearGradient-19)" fill-rule="evenodd" stroke="none" xlink:href="#path-20"/><g id="background" fill="none" fill-rule="evenodd" stroke="none" stroke-width="1" mask="url(#mask-21)"><g fill="url(#linearGradient-22)" transform="translate(-47.480243, -3.954554)"><path id="Rectangle" d="M81.1007477,41.8028662 L137.205105,26.645704 C144.475609,24.6815036 151.961815,28.9831123 153.926016,36.2536159 C154.239495,37.4139606 154.398187,38.610658 154.397968,39.8126018 L154.384978,111.056158 C154.378631,118.585371 148.27534,124.688661 140.746128,124.695008 L69.5025714,124.707998 C61.9714158,124.709372 55.8650948,118.605277 55.8637215,111.074121 C55.8635024,109.872178 56.0221947,108.67548 56.3356737,107.515135 L71.4928358,51.4107781 C72.7582129,46.7269749 76.4169445,43.0682433 81.1007477,41.8028662 Z" transform="translate(103.045593, 73.355623) rotate(45.000000) translate(-103.045593, -73.355623)"/><path id="Rectangle-Copy-19" d="M283.706972,41.8028662 L339.811329,26.645704 C347.081832,24.6815036 354.568039,28.9831123 356.53224,36.2536159 C356.845719,37.4139606 357.004411,38.610658 357.004192,39.8126018 L356.991201,111.056158 C356.984855,118.585371 350.881564,124.688661 343.352352,124.695008 L272.108795,124.707998 C264.57764,124.709372 258.471319,118.605277 258.469945,111.074121 C258.469726,109.872178 258.628419,108.67548 258.941898,107.515135 L274.09906,51.4107781 C275.364437,46.7269749 279.023168,43.0682433 283.706972,41.8028662 Z" transform="translate(305.651817, 73.355623) rotate(45.000000) translate(-305.651817, -73.355623)"/><path id="Rectangle-Copy-20" d="M238.770801,41.8028662 L294.875159,26.645704 C302.145662,24.6815036 309.631869,28.9831123 311.596069,36.2536159 C311.909548,37.4139606 312.068241,38.610658 312.068022,39.8126018 L312.055031,111.056158 C312.048685,118.585371 305.945394,124.688661 298.416181,124.695008 L227.172625,124.707998 C219.641469,124.709372 213.535148,118.605277 213.533775,111.074121 C213.533556,109.872178 213.692248,108.67548 214.005727,107.515135 L229.162889,51.4107781 C230.428267,46.7269749 234.086998,43.0682433 238.770801,41.8028662 Z" transform="translate(260.715646, 73.355623) rotate(45.000000) translate(-260.715646, -73.355623)"/><path id="Rectangle-Copy-24" d="M51.4107781,41.8028662 L107.515135,26.645704 C114.785639,24.6815036 122.271846,28.9831123 124.236046,36.2536159 C124.549525,37.4139606 124.708217,38.610658 124.707998,39.8126018 L124.695008,111.056158 C124.688661,118.585371 118.585371,124.688661 111.056158,124.695008 L39.8126018,124.707998 C32.2814462,124.709372 26.1751251,118.605277 26.1737519,111.074121 C26.1735328,109.872178 26.3322251,108.67548 26.645704,107.515135 L41.8028662,51.4107781 C43.0682433,46.7269749 46.7269749,43.0682433 51.4107781,41.8028662 Z" transform="translate(73.355623, 73.355623) rotate(45.000000) translate(-73.355623, -73.355623)"/></g></g><g id="car" fill="none" fill-rule="evenodd" stroke="none" stroke-width="1" transform="translate(76.428571, 64.588235)"><rect id="Rectangle-Copy-18" width="45.257" height="14.439" x="32.739" y="38.503" fill="#F29900" rx="7.219"/><rect id="Rectangle-Copy-16" width="95.329" height="12.513" x="7.703" y="13.476" fill="#FBBC04" rx="6.257"/><rect id="Rectangle" width="20.221" height="20.214" x="7.703" y="38.503" fill="url(#linearGradient-23)" rx="5.775"/><rect id="Rectangle-Copy-15" width="20.221" height="20.214" x="83.774" y="38.503" fill="url(#linearGradient-23)" rx="5.775"/><path id="Rectangle-Copy-13" fill="#FCC934" d="M32.3514865,0 L78.3840802,0 C83.013305,-1.50612295e-14 87.396994,2.08228387 90.321791,5.67049865 L101.762619,19.7063954 C103.106131,21.3546494 102.859088,23.7799545 101.210834,25.123466 C100.523789,25.6834851 99.664562,25.9893058 98.7781914,25.9893058 L11.9573753,25.9893058 C9.83093129,25.9893058 8.1071078,24.2654824 8.1071078,22.1390383 C8.1071078,21.2526677 8.41292857,20.393441 8.97294762,19.7063954 L20.4137757,5.67049865 C23.3385727,2.08228387 27.7222617,4.40308849e-15 32.3514865,0 Z"/><path id="Rectangle-Copy-17" fill="#FDD663" d="M32.3514865,0 L78.3840802,0 C83.013305,-1.50612295e-14 87.396994,2.08228387 90.321791,5.67049865 L101.762619,19.7063954 C103.106131,21.3546494 102.859088,23.7799545 101.210834,25.123466 C100.523789,25.6834851 99.664562,25.9893058 98.7781914,25.9893058 L11.9573753,25.9893058 C9.83093129,25.9893058 8.1071078,24.2654824 8.1071078,22.1390383 C8.1071078,21.2526677 8.41292857,20.393441 8.97294762,19.7063954 L20.4137757,5.67049865 C23.3385727,2.08228387 27.7222617,4.40308849e-15 32.3514865,0 Z"/><path id="Rectangle-Copy-14" fill="#5F6368" d="M36.0518539,3.85026753 L74.9933818,3.85026753 C78.5319961,3.85026753 81.8753733,5.47227242 84.0656363,8.25157794 L93.4926823,20.2139045 L93.4926823,20.2139045 L18.3453983,20.2139045 L26.6810274,8.64765232 C28.8519851,5.63530089 32.338726,3.85026753 36.0518539,3.85026753 Z"/><path id="Path-4" stroke="#979797" stroke-width=".963"/><rect id="Rectangle" width="110.736" height="31.765" x="0" y="18.289" fill="#FCC934" rx="8.663"/><rect id="Rectangle" width="103.032" height="20.214" x="3.852" y="24.064" fill="#F9AB00" rx="4.813"/><rect id="Rectangle" width="31.776" height="14.439" x="39.48" y="26.952" fill="#5F6368" rx="1.925"/><ellipse id="Oval" cx="13.962" cy="34.171" fill="#EE675C" stroke="#FFF" stroke-width="1.925" rx="6.259" ry="6.257"/><ellipse id="Oval-Copy-27" cx="30.332" cy="34.171" fill="#EE675C" stroke="#FFF" stroke-width="1.925" rx="6.259" ry="6.257"/><ellipse id="Oval-Copy-26" cx="80.404" cy="34.171" fill="#EE675C" stroke="#FFF" stroke-width="1.925" rx="6.259" ry="6.257"/><ellipse id="Oval-Copy-28" cx="96.773" cy="34.171" fill="#EE675C" stroke="#FFF" stroke-width="1.925" rx="6.259" ry="6.257"/></g><rect id="Rectangle-Copy-25" width="264.802" height="1.604" x=".198" y="54.963" fill="#F8F9FA" fill-rule="evenodd" stroke="none"/></g></g></g><g id="frame-top" fill-rule="nonzero" transform="translate(0.000000, 2.000000)"><path id="top" fill="url(#linearGradient-24)" d="M299.676082,0 L30.323918,0 C27.935884,0 26,1.92225192 26,4.29346983 L26,173 L304,173 L304,4.29257536 C304,1.92170677 302.063764,0 299.676082,0 Z M297,161 L33,161 L33,12 L297,12 L297,161 Z"/><g id="base" transform="translate(0.000000, 172.845272)"><path id="laptop-bottom" fill="#DADCE0" d="M2.84217094e-14,0 L2.84217094e-14,4.66285032 C2.84217094e-14,5.04484063 0.153659341,5.41042446 0.4219137,5.67917506 C0.690168059,5.94792566 1.05293477,6.09782764 1.43040685,6.09590327 L132.459251,5.91496224 C132.459251,5.91496224 135.204738,5.41194618 135.795675,5.41194618 L196.000605,5.41194618 C196.000605,5.41194618 199.543544,5.32147566 200.960541,5.97376807 L332.569593,6.15472779 C333.355292,6.15871729 333.995568,5.51766154 334,4.72256086 L334,0 L2.84217094e-14,0 Z"/><rect id="shadow" width="334" height="1.026" x="0" y="0" fill="#BDC1C6"/><path id="bezel" fill="#E8EAED" d="M132.204917,6.15472779 L132.165644,0.955142994 C132.165644,0.955142994 132.823471,0.512893983 134.754109,0.512893983 L197.250366,0.512893983 C197.250366,0.512893983 199.431817,0.642861039 199.785276,0.980414366 L199.785276,5.96970525 C199.785276,5.96970525 197.989417,5.66464369 196.467578,5.67998702 L136.680284,5.75399604 C136.680284,5.75399604 135.589559,5.66374114 135.240562,5.69352525 L132.204917,6.15472779 Z"/></g></g></g></g></g></g></svg>