<svg xmlns="http://www.w3.org/2000/svg" xmlns:xlink="http://www.w3.org/1999/xlink" width="350" height="198" version="1.1" viewBox="0 0 350 198"><title>05 Linux</title><defs><filter id="filter-1" width="106.3%" height="111.5%" x="-3.1%" y="-5.8%" filterUnits="objectBoundingBox"><feOffset dx="0" dy="3" in="SourceAlpha" result="shadowOffsetOuter1"/><feGaussianBlur in="shadowOffsetOuter1" result="shadowBlurOuter1" stdDeviation="1"/><feColorMatrix in="shadowBlurOuter1" result="shadowMatrixOuter1" type="matrix" values="0 0 0 0 0 0 0 0 0 0 0 0 0 0 0 0 0 0 0.3 0"/><feMerge><feMergeNode in="shadowMatrixOuter1"/><feMergeNode in="SourceGraphic"/></feMerge></filter><rect id="path-2" width="264" height="150" x="0" y=".944"/><linearGradient id="linearGradient-4" x1="50%" x2="50%" y1="110.675%" y2="29.331%"><stop offset="0%" stop-color="#BDC1C6"/><stop offset="100%" stop-color="#E8EAED"/></linearGradient><filter id="filter-5" width="116.8%" height="125.7%" x="-8.4%" y="-12.9%" filterUnits="objectBoundingBox"><feOffset dx="0" dy="2" in="SourceAlpha" result="shadowOffsetOuter1"/><feGaussianBlur in="shadowOffsetOuter1" result="shadowBlurOuter1" stdDeviation="2.5"/><feColorMatrix in="shadowBlurOuter1" result="shadowMatrixOuter1" type="matrix" values="0 0 0 0 0 0 0 0 0 0 0 0 0 0 0 0 0 0 0.3 0"/><feMerge><feMergeNode in="shadowMatrixOuter1"/><feMergeNode in="SourceGraphic"/></feMerge></filter><rect id="path-6" width="161" height="105" x="0" y="0" rx="4"/><filter id="filter-8" width="114.8%" height="122.6%" x="-7.4%" y="-11.3%" filterUnits="objectBoundingBox"><feOffset dx="0" dy="2" in="SourceAlpha" result="shadowOffsetOuter1"/><feGaussianBlur in="shadowOffsetOuter1" result="shadowBlurOuter1" stdDeviation="2"/><feColorMatrix in="shadowBlurOuter1" result="shadowMatrixOuter1" type="matrix" values="0 0 0 0 0 0 0 0 0 0 0 0 0 0 0 0 0 0 0.3 0"/><feMerge><feMergeNode in="shadowMatrixOuter1"/><feMergeNode in="SourceGraphic"/></feMerge></filter><rect id="path-9" width="162" height="106" x="0" y="0" rx="4"/></defs><g id="Illustrations" fill="none" fill-rule="evenodd" stroke="none" stroke-width="1"><g id="Linux-(Beta)-Copy" transform="translate(-337.000000, -28.000000)"><g id="05-Linux" transform="translate(345.000000, 36.000000)"><g id="Laptop-Frame" filter="url(#filter-1)"><path id="frame-bottom" fill="#E8EAED" fill-rule="nonzero" d="M300.703586,0 L29.2964142,0 C26.9235702,0 25,1.92986653 25,4.31047754 L25,175 L305,175 L305,4.31047754 C305,1.92986653 303.07643,0 300.703586,0 Z M296.8977,162.279103 L32.8976996,162.279103 L32.8976996,13.4352351 L296.8977,13.4352351 L296.8977,162.279103 Z"/><g id="DESIGN-HERE" transform="translate(33.000000, 12.000000)"><mask id="mask-3" fill="#fff"><use xlink:href="#path-2"/></mask><use id="Mask" fill="#F8F9FA" xlink:href="#path-2"/></g><g id="frame-top" fill-rule="nonzero" transform="translate(0.000000, 2.000000)"><path id="top" fill="url(#linearGradient-4)" d="M299.676082,0 L30.323918,0 C27.935884,0 26,1.92225192 26,4.29346983 L26,173 L304,173 L304,4.29257536 C304,1.92170677 302.063764,0 299.676082,0 Z M297,161 L33,161 L33,12 L297,12 L297,161 Z"/><g id="base" transform="translate(0.000000, 172.845272)"><path id="laptop-bottom" fill="#DADCE0" d="M2.84217094e-14,0 L2.84217094e-14,4.66285032 C2.84217094e-14,5.04484063 0.153659341,5.41042446 0.4219137,5.67917506 C0.690168059,5.94792566 1.05293477,6.09782764 1.43040685,6.09590327 L132.459251,5.91496224 C132.459251,5.91496224 135.204738,5.41194618 135.795675,5.41194618 L196.000605,5.41194618 C196.000605,5.41194618 199.543544,5.32147566 200.960541,5.97376807 L332.569593,6.15472779 C333.355292,6.15871729 333.995568,5.51766154 334,4.72256086 L334,0 L2.84217094e-14,0 Z"/><rect id="shadow" width="334" height="1.026" x="0" y="0" fill="#BDC1C6"/><path id="bezel" fill="#E8EAED" d="M132.204917,6.15472779 L132.165644,0.955142994 C132.165644,0.955142994 132.823471,0.512893983 134.754109,0.512893983 L197.250366,0.512893983 C197.250366,0.512893983 199.431817,0.642861039 199.785276,0.980414366 L199.785276,5.96970525 C199.785276,5.96970525 197.989417,5.66464369 196.467578,5.67998702 L136.680284,5.75399604 C136.680284,5.75399604 135.589559,5.66374114 135.240562,5.69352525 L132.204917,6.15472779 Z"/></g></g></g><g id="Terminal-Copy" filter="url(#filter-5)" transform="translate(45.000000, 20.000000)"><mask id="mask-7" fill="#fff"><use xlink:href="#path-6"/></mask><use id="Rectangle" fill="#80868B" xlink:href="#path-6"/><rect id="Rectangle" width="50.983" height="43.861" x="44.275" y="67.785" fill="#5BB974" mask="url(#mask-7)"/><rect id="Rectangle-Copy-17" width="50.983" height="43.861" x="103.979" y="67.785" fill="#EA4335" mask="url(#mask-7)"/><rect id="Rectangle-Copy-18" width="50.983" height="39.209" x="103.979" y="21.266" fill="#FBBC04" mask="url(#mask-7)"/><rect id="Rectangle-Copy-16" width="50.983" height="34.557" x="44.275" y="21.266" fill="#4285F4" mask="url(#mask-7)"/><rect id="Rectangle-Copy-20" width="45.617" height="33.228" x="106.662" y="23.924" fill="#FCC934" mask="url(#mask-7)"/><rect id="Rectangle-Copy-19" width="45.617" height="34.557" x="46.958" y="70.443" fill="#81C995" mask="url(#mask-7)"/><rect id="Rectangle-Copy-21" width="45.617" height="34.557" x="106.662" y="70.443" fill="#EE675C" mask="url(#mask-7)"/><rect id="Rectangle-Copy-20" width="45.617" height="33.228" x="46.958" y="23.924" fill="#669DF6" mask="url(#mask-7)"/><rect id="Rectangle-Copy-3" width="4.025" height="99.019" x="97.271" y="5.981" fill="#5F6368" mask="url(#mask-7)"/><rect id="Rectangle-Copy-14" width="4.025" height="99.019" x="37.567" y="5.981" fill="#5F6368" mask="url(#mask-7)"/><rect id="Rectangle-Copy-15" width="4.025" height="99.019" x="156.975" y="5.981" fill="#5F6368" mask="url(#mask-7)"/><rect id="Rectangle-Copy" width="123.433" height="7.31" x="37.567" y="55.158" fill="#5F6368" mask="url(#mask-7)"/><rect id="Rectangle" width="41.592" height="109.652" x="-4.025" y="1.329" fill="#5F6368" mask="url(#mask-7)"/><line id="Line" x1="38.237" x2="38.237" y1="12.294" y2="105.997" stroke="#9AA0A6" stroke-linecap="square" stroke-width="2" mask="url(#mask-7)"/><line id="Line-Copy" x1="80.171" x2="81.5" y1="-64.886" y2="96.785" stroke="#9AA0A6" stroke-linecap="square" stroke-width="2" mask="url(#mask-7)" transform="translate(80.835417, 15.949367) rotate(-90.000000) translate(-80.835417, -15.949367)"/><rect id="Rectangle-Copy-3" width="29.517" height="2.658" x="2.683" y="22.595" fill="#FFF" mask="url(#mask-7)" rx="1.329"/><rect id="Rectangle-Copy-4" width="21.467" height="2.658" x="2.683" y="27.911" fill="#FFF" mask="url(#mask-7)" rx="1.329"/><rect id="Rectangle-Copy-5" width="29.517" height="2.658" x="2.683" y="33.228" fill="#FFF" mask="url(#mask-7)" rx="1.329"/><rect id="Rectangle-Copy-12" width="21.467" height="2.658" x="2.683" y="38.544" fill="#FFF" mask="url(#mask-7)" rx="1.329"/><rect id="Rectangle-Copy-29" width="21.467" height="2.658" x="2.683" y="49.177" fill="#FFF" mask="url(#mask-7)" rx="1.329"/><rect id="Rectangle-Copy-13" width="29.517" height="2.658" x="2.683" y="43.861" fill="#FFF" mask="url(#mask-7)" rx="1.329"/><g id="nav-bar" mask="url(#mask-7)"><g transform="translate(-6.708333, -0.664557)"><rect id="Rectangle" width="173.075" height="9.304" x="0" y="0" fill="#DADCE0"/><rect id="minimize" width="4.025" height="1" x="144.9" y="5.981" fill="#5F6368"/><g id="maximize" fill="none" stroke-width="1" transform="translate(150.826780, 3.322785)"><rect id="Rectangle-Copy-6" width="4.025" height="1" x=".782" y="2.658" fill="#5F6368"/><rect id="Rectangle-Copy-9" width="4.025" height="1" x=".782" y="0" fill="#5F6368"/><polygon id="Rectangle-Copy-10" fill="#5F6368" points="-.544 1.326 2.778 1.326 2.778 1.997 -.544 1.997" transform="translate(1.116970, 1.661392) rotate(90.000000) translate(-1.116970, -1.661392)"/><polygon id="Rectangle-Copy-11" fill="#5F6368" points="2.81 1.326 6.133 1.326 6.133 1.997 2.81 1.997" transform="translate(4.471137, 1.661392) rotate(90.000000) translate(-4.471137, -1.661392)"/></g><g id="close" fill="none" stroke-width="1" transform="translate(158.316667, 2.545007)"><polygon id="Rectangle-Copy-7" fill="#5F6368" points=".011 2.115 4.017 2.096 4.014 2.764 .008 2.782" transform="translate(2.012500, 2.439170) rotate(45.000000) translate(-2.012500, -2.439170)"/><polygon id="Rectangle-Copy-8" fill="#5F6368" points=".008 2.096 4.014 2.115 4.017 2.782 .011 2.764" transform="translate(2.012500, 2.439170) rotate(-4545.000000) translate(-2.012500, -2.439170)"/></g></g></g><rect id="Rectangle-Copy-2" width="161" height="7.31" x="0" y="8.639" fill="#5F6368" mask="url(#mask-7)"/><rect id="Rectangle-Copy-22" width="8.721" height="2.658" x="4.025" y="10.633" fill="#FFF" mask="url(#mask-7)" rx="1.329"/><rect id="Rectangle-Copy-23" width="8.721" height="2.658" x="15.429" y="10.633" fill="#FFF" mask="url(#mask-7)" rx="1.329"/><rect id="Rectangle-Copy-24" width="8.721" height="2.658" x="26.833" y="10.633" fill="#FFF" mask="url(#mask-7)" rx="1.329"/><rect id="Rectangle-Copy-25" width="8.721" height="2.658" x="38.237" y="10.633" fill="#FFF" mask="url(#mask-7)" rx="1.329"/><rect id="Rectangle-Copy-26" width="8.721" height="2.658" x="49.642" y="10.633" fill="#FFF" mask="url(#mask-7)" rx="1.329"/><rect id="Rectangle-Copy-27" width="8.721" height="2.658" x="61.046" y="10.633" fill="#FFF" mask="url(#mask-7)" rx="1.329"/><rect id="Rectangle-Copy-28" width="8.721" height="2.658" x="72.45" y="10.633" fill="#FFF" mask="url(#mask-7)" rx="1.329"/></g><g id="Terminal" filter="url(#filter-8)" transform="translate(127.000000, 50.000000)"><mask id="mask-10" fill="#fff"><use xlink:href="#path-9"/></mask><use id="Rectangle" fill="#202124" xlink:href="#path-9"/><g id="code" mask="url(#mask-10)"><g transform="translate(8.000000, 20.000000)"><rect id="Rectangle" width="60" height="5" x="0" y="0" fill="#EE675C" rx="2.5"/><rect id="Rectangle-Copy-4" width="60" height="5" x="0" y="20" fill="#4285F4" rx="2.5"/><rect id="Rectangle-Copy" width="24" height="5" x="0" y="10" fill="#34A853" rx="2.5"/><rect id="Rectangle-Copy-14" width="24" height="5" x="0" y="50" fill="#34A853" rx="2.5"/><rect id="Rectangle-Copy-2" width="24" height="5" x="28" y="10" fill="#FCC934" rx="2.5"/><rect id="Rectangle-Copy-15" width="24" height="5" x="28" y="50" fill="#FCC934" rx="2.5"/><rect id="Rectangle-Copy-3" width="48" height="5" x="58" y="10" fill="#FFF" rx="2.5"/><rect id="Rectangle-Copy-16" width="36" height="5" x="58" y="50" fill="#FFF" rx="2.5"/><rect id="Rectangle-Copy-5" width="48" height="5" x="0" y="30" fill="#FFF" rx="2.5"/></g></g><g id="nav-bar" mask="url(#mask-10)"><g transform="translate(-7.000000, -1.000000)"><rect id="Rectangle" width="175" height="9" x="0" y="0" fill="#DADCE0"/><rect id="minimize" width="4.07" height="1" x="146.512" y="5.786" fill="#5F6368"/><g id="maximize" fill="none" stroke-width="1" transform="translate(152.509820, 3.214286)"><rect id="Rectangle-Copy-6" width="4.07" height="1" x=".785" y="2.571" fill="#5F6368"/><rect id="Rectangle-Copy-9" width="4.07" height="1" x=".785" y="0" fill="#5F6368"/><polygon id="Rectangle-Copy-10" fill="#5F6368" points="-.483 1.268 2.731 1.268 2.731 1.946 -.483 1.946" transform="translate(1.123901, 1.607143) rotate(90.000000) translate(-1.123901, -1.607143)"/><polygon id="Rectangle-Copy-11" fill="#5F6368" points="2.908 1.268 6.123 1.268 6.123 1.946 2.908 1.946" transform="translate(4.515374, 1.607143) rotate(90.000000) translate(-4.515374, -1.607143)"/></g><g id="close" fill="none" stroke-width="1" transform="translate(160.077519, 2.464286)"><polygon id="Rectangle-Copy-7" fill="#5F6368" points=".062 2.08 4.025 1.974 4.008 2.634 .044 2.741" transform="translate(2.034884, 2.357143) rotate(45.000000) translate(-2.034884, -2.357143)"/><polygon id="Rectangle-Copy-8" fill="#5F6368" points=".044 1.974 4.008 2.08 4.025 2.741 .062 2.634" transform="translate(2.034884, 2.357143) rotate(-4545.000000) translate(-2.034884, -2.357143)"/></g></g></g></g></g></g></g></svg>