<svg xmlns="http://www.w3.org/2000/svg" xmlns:xlink="http://www.w3.org/1999/xlink" width="704" height="182" version="1.1" viewBox="0 0 704 182"><title>04 Publish</title><defs><path id="path-1" d="M33.3333333,15 L30,15 L30,10 L10,10 L10,15 L6.66666667,15 L6.66666667,10 C6.66666667,8.16666667 8.16666667,6.66666667 10,6.66666667 L30,6.66666667 C31.8333333,6.66666667 33.3333333,8.16666667 33.3333333,10 L33.3333333,15 Z M14.0166667,24.0166667 L18.3333333,19.7166667 L18.3333333,33.3333333 L21.6666667,33.3333333 L21.6666667,19.7166667 L25.9833333,24.0333333 L28.3333333,21.6666667 L20,13.3333333 L11.6666667,21.6666667 L14.0166667,24.0166667 Z"/><linearGradient id="linearGradient-3" x1="50%" x2="50%" y1="0%" y2="100%"><stop offset="0%" stop-color="#4285F4"/><stop offset="100%" stop-color="#1A73E8"/></linearGradient><linearGradient id="linearGradient-4" x1="50%" x2="50%" y1="1.691%" y2="100%"><stop offset="0%" stop-color="#EE675C"/><stop offset="100%" stop-color="#EA4335"/></linearGradient><linearGradient id="linearGradient-5" x1="50%" x2="50%" y1="0%" y2="100%"><stop offset="0%" stop-color="#FDD663"/><stop offset="100%" stop-color="#FBBC04"/></linearGradient><linearGradient id="linearGradient-6" x1="50%" x2="50%" y1="0%" y2="100%"><stop offset="0%" stop-color="#5BB974"/><stop offset="100%" stop-color="#34A853"/></linearGradient><path id="path-7" d="M9.33333333,13.3333333 L5.33333333,13.3333333 L5.33333333,22.6666667 L9.33333333,22.6666667 L9.33333333,13.3333333 L9.33333333,13.3333333 Z M17.3333333,13.3333333 L13.3333333,13.3333333 L13.3333333,22.6666667 L17.3333333,22.6666667 L17.3333333,13.3333333 L17.3333333,13.3333333 Z M28,25.3333333 L2.66666667,25.3333333 L2.66666667,28 L28,28 L28,25.3333333 L28,25.3333333 Z M25.3333333,13.3333333 L21.3333333,13.3333333 L21.3333333,22.6666667 L25.3333333,22.6666667 L25.3333333,13.3333333 L25.3333333,13.3333333 Z M15.3333333,4.34666667 L22.28,8 L8.38666667,8 L15.3333333,4.34666667 L15.3333333,4.34666667 Z M15.3333333,1.33333333 L2.66666667,8 L2.66666667,10.6666667 L28,10.6666667 L28,8 L15.3333333,1.33333333 L15.3333333,1.33333333 Z"/><path id="path-9" d="M5.33333333,16 L10.6666667,16 L10.6666667,26.6666667 L5.33333333,26.6666667 L5.33333333,16 Z M13.3333333,5.33333333 L18.6666667,5.33333333 L18.6666667,26.6666667 L13.3333333,26.6666667 L13.3333333,5.33333333 Z M21.3333333,12 L26.6666667,12 L26.6666667,26.6666667 L21.3333333,26.6666667 L21.3333333,12 Z"/><polygon id="path-11" points="29.333 14.667 23.773 14.667 28.093 10.347 26.213 8.453 20 14.667 17.333 14.667 17.333 12 23.547 5.787 21.653 3.907 17.333 8.227 17.333 2.667 14.667 2.667 14.667 8.227 10.347 3.907 8.453 5.787 14.667 12 14.667 14.667 12 14.667 5.787 8.453 3.907 10.347 8.227 14.667 2.667 14.667 2.667 17.333 8.227 17.333 3.907 21.653 5.787 23.547 12 17.333 14.667 17.333 14.667 20 8.453 26.213 10.347 28.093 14.667 23.773 14.667 29.333 17.333 29.333 17.333 23.773 21.653 28.093 23.547 26.213 17.333 20 17.333 17.333 20 17.333 26.213 23.547 28.093 21.653 23.773 17.333 29.333 17.333"/><path id="path-13" d="M28,21.3333333 L28,18.6666667 L17.3333333,12 L17.3333333,4.66666667 C17.3333333,3.56 16.44,2.66666667 15.3333333,2.66666667 C14.2266667,2.66666667 13.3333333,3.56 13.3333333,4.66666667 L13.3333333,12 L2.66666667,18.6666667 L2.66666667,21.3333333 L13.3333333,18 L13.3333333,25.3333333 L10.6666667,27.3333333 L10.6666667,29.3333333 L15.3333333,28 L20,29.3333333 L20,27.3333333 L17.3333333,25.3333333 L17.3333333,18 L28,21.3333333 Z"/><path id="path-15" d="M20.6666667,9.44 C20.6666667,11.8 19.5466667,13.7733333 18,14.5333333 L18,28 L15.3333333,28 L15.3333333,14.5333333 C13.7866667,13.7733333 12.6666667,11.8 12.6666667,9.44 C12.68,6.44 14.4666667,4 16.6666667,4 C18.88,4 20.6666667,6.44 20.6666667,9.44 Z M22.6666667,4 L22.6666667,28 L25.3333333,28 L25.3333333,17.3333333 L28,17.3333333 L28,9.33333333 C28,6.98666667 26.3466667,4 22.6666667,4 Z M11.04,4 C10.5066667,4 10.08,4.42666667 10.08,4.96 L10.08,9.33333333 L8.96,9.33333333 L8.96,4.96 C8.96,4.42666667 8.53333333,4 8,4 C7.46666667,4 7.04,4.42666667 7.04,4.96 L7.04,9.33333333 L5.92,9.33333333 L5.92,4.96 C5.92,4.42666667 5.49333333,4 4.96,4 C4.42666667,4 4,4.42666667 4,4.96 L4,9.33333333 L4,12 C4,13.4666667 5.2,14.6666667 6.66666667,14.6666667 L6.66666667,28 L9.33333333,28 L9.33333333,14.6666667 C10.8,14.6666667 12,13.4666667 12,12 L12,9.33333333 L12,4.96 C12,4.42666667 11.5733333,4 11.04,4 Z"/><polygon id="path-17" points="9.333 2.667 9.333 17.333 13.333 17.333 13.333 29.333 22.667 13.333 17.333 13.333 21.333 2.667"/><path id="path-19" d="M16,4 L16,18.0666667 C15.2133333,17.6133333 14.3066667,17.3333333 13.3333333,17.3333333 C10.3866667,17.3333333 8,19.72 8,22.6666667 C8,25.6133333 10.3866667,28 13.3333333,28 C16.28,28 18.6666667,25.6133333 18.6666667,22.6666667 L18.6666667,9.33333333 L24,9.33333333 L24,4 L16,4 Z"/><path id="path-21" d="M20.9733333,16.64 C20.1333333,15.7866667 18.9466667,15.0933333 17.4133333,14.56 L16.2933333,14.1866667 C15.2266667,13.8266667 14.44,13.44 13.9466667,13.04 C13.4533333,12.6266667 13.2,12.12 13.2,11.5066667 C13.2,10.8533333 13.48,10.32 14.04,9.90666667 C14.6,9.49333333 15.28,9.28 16.0933333,9.28 C16.9066667,9.28 17.5733333,9.49333333 18.0933333,9.93333333 C18.6133333,10.36 18.96,10.8666667 19.1466667,11.4266667 L21.6666667,10.36 C21.3466667,9.41333333 20.72,8.56 19.8,7.8 C19.1333333,7.26666667 18.3066667,6.93333333 17.3333333,6.77333333 L17.3333333,4 L14.6666667,4 L14.6666667,6.81333333 C14.12,6.92 13.6133333,7.09333333 13.1466667,7.33333333 C12.28,7.77333333 11.6133333,8.36 11.1333333,9.10666667 C10.6533333,9.86666667 10.4133333,10.68 10.4133333,11.56 C10.4133333,12.84 10.8266667,13.8666667 11.64,14.6533333 C12.4533333,15.44 13.4666667,16.04 14.6533333,16.4533333 L15.7733333,16.8533333 C17.12,17.3333333 18.0666667,17.8133333 18.6,18.2933333 C19.1466667,18.7733333 19.4133333,19.3733333 19.4133333,20.1066667 C19.4133333,20.9066667 19.1066667,21.5333333 18.4933333,21.9866667 C17.88,22.44 17.1333333,22.6666667 16.2533333,22.6666667 C15.3066667,22.6666667 14.4933333,22.36 13.8133333,21.7333333 C13.1466667,21.1066667 12.6666667,20.3066667 12.4,19.32 L9.76,20.3866667 C10.2133333,21.9466667 11.0266667,23.16 12.2,24.0266667 C12.96,24.5866667 13.7866667,24.9333333 14.6666667,25.1333333 L14.6666667,28 L17.3333333,28 L17.3333333,25.2266667 C17.92,25.1333333 18.4933333,25 19.0533333,24.76 C19.9733333,24.3733333 20.7333333,23.7866667 21.3333333,23 C21.9333333,22.2133333 22.2266667,21.2266667 22.2266667,20.0666667 C22.24,18.64 21.8133333,17.4933333 20.9733333,16.64 Z"/><rect id="path-23" width="270" height="152.888" x="0" y=".057"/><linearGradient id="linearGradient-25" x1="61.033%" x2="26.515%" y1="4.966%" y2="71.91%"><stop offset="0%" stop-color="#00A0FF"/><stop offset=".7%" stop-color="#00A1FF"/><stop offset="26%" stop-color="#00BEFF"/><stop offset="51.2%" stop-color="#00D2FF"/><stop offset="76%" stop-color="#00DFFF"/><stop offset="100%" stop-color="#00E3FF"/></linearGradient><linearGradient id="linearGradient-26" x1="107.589%" x2="-130.473%" y1="49.995%" y2="49.995%"><stop offset="0%" stop-color="#FFE000"/><stop offset="40.9%" stop-color="#FFBD00"/><stop offset="77.5%" stop-color="orange"/><stop offset="100%" stop-color="#FF9C00"/></linearGradient><linearGradient id="linearGradient-27" x1="86.244%" x2="-50.145%" y1="30.9%" y2="136.018%"><stop offset="0%" stop-color="#FF3A44"/><stop offset="100%" stop-color="#C31162"/></linearGradient><linearGradient id="linearGradient-28" x1="-18.809%" x2="42.093%" y1="-11.867%" y2="35.072%"><stop offset="0%" stop-color="#32A071"/><stop offset="6.9%" stop-color="#2DA771"/><stop offset="47.6%" stop-color="#15CF74"/><stop offset="80.1%" stop-color="#06E775"/><stop offset="100%" stop-color="#00F076"/></linearGradient><path id="path-29" d="M12.2727273,3.50125392 L1.75324675,3.50125392 C1.11038961,3.50125392 0.584415584,4.02644201 0.584415584,4.66833856 L0.584415584,9.33667712 C0.584415584,9.97857367 1.11038961,10.5037618 1.75324675,10.5037618 L12.2727273,10.5037618 C12.9155844,10.5037618 13.4415584,9.97857367 13.4415584,9.33667712 L13.4415584,4.66833856 C13.4415584,4.02644201 12.9155844,3.50125392 12.2727273,3.50125392 Z M5.84415584,7.58605016 L4.67532468,7.58605016 L4.67532468,8.7531348 C4.67532468,9.07408307 4.41233766,9.33667712 4.09090909,9.33667712 C3.76948052,9.33667712 3.50649351,9.07408307 3.50649351,8.7531348 L3.50649351,7.58605016 L2.33766234,7.58605016 C2.01623377,7.58605016 1.75324675,7.32345611 1.75324675,7.00250784 C1.75324675,6.68155956 2.01623377,6.41896552 2.33766234,6.41896552 L3.50649351,6.41896552 L3.50649351,5.25188088 C3.50649351,4.9309326 3.76948052,4.66833856 4.09090909,4.66833856 C4.41233766,4.66833856 4.67532468,4.9309326 4.67532468,5.25188088 L4.67532468,6.41896552 L5.84415584,6.41896552 C6.16558442,6.41896552 6.42857143,6.68155956 6.42857143,7.00250784 C6.42857143,7.32345611 6.16558442,7.58605016 5.84415584,7.58605016 Z M9.05844156,8.7531348 C8.57337662,8.7531348 8.18181818,8.36216144 8.18181818,7.87782132 C8.18181818,7.39348119 8.57337662,7.00250784 9.05844156,7.00250784 C9.54350649,7.00250784 9.93506494,7.39348119 9.93506494,7.87782132 C9.93506494,8.36216144 9.54350649,8.7531348 9.05844156,8.7531348 Z M11.3961039,7.00250784 C10.911039,7.00250784 10.5194805,6.61153448 10.5194805,6.12719436 C10.5194805,5.64285423 10.911039,5.25188088 11.3961039,5.25188088 C11.8811688,5.25188088 12.2727273,5.64285423 12.2727273,6.12719436 C12.2727273,6.61153448 11.8811688,7.00250784 11.3961039,7.00250784 Z"/><path id="path-31" d="M11.6883117,1.75062696 L10.5194805,1.75062696 L10.5194805,2.9177116 L9.35064935,2.9177116 L9.35064935,1.75062696 L4.67532468,1.75062696 L4.67532468,2.9177116 L3.50649351,2.9177116 L3.50649351,1.75062696 L2.33766234,1.75062696 L2.33766234,12.2543887 L3.50649351,12.2543887 L3.50649351,11.0873041 L4.67532468,11.0873041 L4.67532468,12.2543887 L9.35064935,12.2543887 L9.35064935,11.0873041 L10.5194805,11.0873041 L10.5194805,12.2543887 L11.6883117,12.2543887 L11.6883117,1.75062696 L11.6883117,1.75062696 Z M9.35064935,5.25188088 L9.35064935,4.08479624 L10.5194805,4.08479624 L10.5194805,5.25188088 L9.35064935,5.25188088 L9.35064935,5.25188088 Z M3.50649351,5.25188088 L3.50649351,4.08479624 L4.67532468,4.08479624 L4.67532468,5.25188088 L3.50649351,5.25188088 L3.50649351,5.25188088 Z M9.35064935,7.58605016 L9.35064935,6.41896552 L10.5194805,6.41896552 L10.5194805,7.58605016 L9.35064935,7.58605016 L9.35064935,7.58605016 Z M3.50649351,7.58605016 L3.50649351,6.41896552 L4.67532468,6.41896552 L4.67532468,7.58605016 L3.50649351,7.58605016 L3.50649351,7.58605016 Z M9.35064935,9.92021944 L9.35064935,8.7531348 L10.5194805,8.7531348 L10.5194805,9.92021944 L9.35064935,9.92021944 L9.35064935,9.92021944 Z M3.50649351,9.92021944 L3.50649351,8.7531348 L4.67532468,8.7531348 L4.67532468,9.92021944 L3.50649351,9.92021944 L3.50649351,9.92021944 Z"/><path id="path-33" d="M10.5194805,1.16708464 L3.50649351,1.16708464 C2.86363636,1.16708464 2.33766234,1.69227273 2.33766234,2.33416928 L2.33766234,11.6708464 C2.33766234,12.3127429 2.86363636,12.837931 3.50649351,12.837931 L10.5194805,12.837931 C11.1623377,12.837931 11.6883117,12.3127429 11.6883117,11.6708464 L11.6883117,2.33416928 C11.6883117,1.69227273 11.1623377,1.16708464 10.5194805,1.16708464 Z M3.50649351,2.33416928 L6.42857143,2.33416928 L6.42857143,7.00250784 L4.96753247,6.12719436 L3.50649351,7.00250784 L3.50649351,2.33416928 Z"/><path id="path-35" d="M3.50649351,4.66833856 L3.50649351,4.66833856 C4.14935065,4.66833856 4.67532468,4.14315047 4.67532468,3.50125392 L4.67532468,3.50125392 C4.67532468,2.85935737 4.14935065,2.33416928 3.50649351,2.33416928 L3.50649351,2.33416928 C2.86363636,2.33416928 2.33766234,2.85935737 2.33766234,3.50125392 L2.33766234,3.50125392 C2.33766234,4.14315047 2.86363636,4.66833856 3.50649351,4.66833856 Z M7.01298701,11.6708464 L7.01298701,11.6708464 C7.65584416,11.6708464 8.18181818,11.1456583 8.18181818,10.5037618 L8.18181818,10.5037618 C8.18181818,9.8618652 7.65584416,9.33667712 7.01298701,9.33667712 L7.01298701,9.33667712 C6.37012987,9.33667712 5.84415584,9.8618652 5.84415584,10.5037618 L5.84415584,10.5037618 C5.84415584,11.1456583 6.37012987,11.6708464 7.01298701,11.6708464 Z M3.50649351,11.6708464 L3.50649351,11.6708464 C4.14935065,11.6708464 4.67532468,11.1456583 4.67532468,10.5037618 L4.67532468,10.5037618 C4.67532468,9.8618652 4.14935065,9.33667712 3.50649351,9.33667712 L3.50649351,9.33667712 C2.86363636,9.33667712 2.33766234,9.8618652 2.33766234,10.5037618 L2.33766234,10.5037618 C2.33766234,11.1456583 2.86363636,11.6708464 3.50649351,11.6708464 Z M3.50649351,8.16959248 L3.50649351,8.16959248 C4.14935065,8.16959248 4.67532468,7.64440439 4.67532468,7.00250784 L4.67532468,7.00250784 C4.67532468,6.36061129 4.14935065,5.8354232 3.50649351,5.8354232 L3.50649351,5.8354232 C2.86363636,5.8354232 2.33766234,6.36061129 2.33766234,7.00250784 L2.33766234,7.00250784 C2.33766234,7.64440439 2.86363636,8.16959248 3.50649351,8.16959248 Z M7.01298701,8.16959248 L7.01298701,8.16959248 C7.65584416,8.16959248 8.18181818,7.64440439 8.18181818,7.00250784 L8.18181818,7.00250784 C8.18181818,6.36061129 7.65584416,5.8354232 7.01298701,5.8354232 L7.01298701,5.8354232 C6.37012987,5.8354232 5.84415584,6.36061129 5.84415584,7.00250784 L5.84415584,7.00250784 C5.84415584,7.64440439 6.37012987,8.16959248 7.01298701,8.16959248 Z M9.35064935,3.50125392 L9.35064935,3.50125392 C9.35064935,4.14315047 9.87662338,4.66833856 10.5194805,4.66833856 L10.5194805,4.66833856 C11.1623377,4.66833856 11.6883117,4.14315047 11.6883117,3.50125392 L11.6883117,3.50125392 C11.6883117,2.85935737 11.1623377,2.33416928 10.5194805,2.33416928 L10.5194805,2.33416928 C9.87662338,2.33416928 9.35064935,2.85935737 9.35064935,3.50125392 Z M7.01298701,4.66833856 L7.01298701,4.66833856 C7.65584416,4.66833856 8.18181818,4.14315047 8.18181818,3.50125392 L8.18181818,3.50125392 C8.18181818,2.85935737 7.65584416,2.33416928 7.01298701,2.33416928 L7.01298701,2.33416928 C6.37012987,2.33416928 5.84415584,2.85935737 5.84415584,3.50125392 L5.84415584,3.50125392 C5.84415584,4.14315047 6.37012987,4.66833856 7.01298701,4.66833856 Z M10.5194805,8.16959248 L10.5194805,8.16959248 C11.1623377,8.16959248 11.6883117,7.64440439 11.6883117,7.00250784 L11.6883117,7.00250784 C11.6883117,6.36061129 11.1623377,5.8354232 10.5194805,5.8354232 L10.5194805,5.8354232 C9.87662338,5.8354232 9.35064935,6.36061129 9.35064935,7.00250784 L9.35064935,7.00250784 C9.35064935,7.64440439 9.87662338,8.16959248 10.5194805,8.16959248 Z M10.5194805,11.6708464 L10.5194805,11.6708464 C11.1623377,11.6708464 11.6883117,11.1456583 11.6883117,10.5037618 L11.6883117,10.5037618 C11.6883117,9.8618652 11.1623377,9.33667712 10.5194805,9.33667712 L10.5194805,9.33667712 C9.87662338,9.33667712 9.35064935,9.8618652 9.35064935,10.5037618 L9.35064935,10.5037618 C9.35064935,11.1456583 9.87662338,11.6708464 10.5194805,11.6708464 Z"/><linearGradient id="linearGradient-37" x1="50%" x2="50%" y1="0%" y2="100%"><stop offset="0%" stop-color="#4285F4"/><stop offset="100%" stop-color="#1A73E8"/></linearGradient><linearGradient id="linearGradient-38" x1="50%" x2="50%" y1="0%" y2="99.702%"><stop offset="0%" stop-color="#FDE293"/><stop offset="100%" stop-color="#FCC934"/></linearGradient><linearGradient id="linearGradient-39" x1="50%" x2="50%" y1="1.691%" y2="100%"><stop offset="0%" stop-color="#EE675C"/><stop offset="100%" stop-color="#EA4335"/></linearGradient><linearGradient id="linearGradient-40" x1="50%" x2="50%" y1="0%" y2="100%"><stop offset="0%" stop-color="#FDD663"/><stop offset="100%" stop-color="#FBBC04"/></linearGradient><linearGradient id="linearGradient-41" x1="50%" x2="50%" y1="0%" y2="100%"><stop offset="0%" stop-color="#5BB974"/><stop offset="100%" stop-color="#34A853"/></linearGradient><path id="path-42" d="M11.9746753,11.0873041 L8.62597403,7.74360658 C9.07597403,7.1192163 9.35064935,6.36644671 9.35064935,5.54365204 C9.35064935,3.44873511 7.65,1.75062696 5.55194805,1.75062696 C3.4538961,1.75062696 1.75324675,3.44873511 1.75324675,5.54365204 C1.75324675,7.63856897 3.4538961,9.33667712 5.55194805,9.33667712 C6.37597403,9.33667712 7.12987013,9.06241223 7.75519481,8.61308464 L11.1038961,11.9567821 L11.9746753,11.0873041 Z M2.92207792,5.54365204 C2.92207792,4.09063166 4.09675325,2.9177116 5.55194805,2.9177116 C7.00714286,2.9177116 8.18181818,4.09063166 8.18181818,5.54365204 C8.18181818,6.99667241 7.00714286,8.16959248 5.55194805,8.16959248 C4.09675325,8.16959248 2.92207792,6.99667241 2.92207792,5.54365204 Z"/><path id="path-44" d="M4.66666667,6.66666667 L2.66666667,6.66666667 L2.66666667,11.3333333 L4.66666667,11.3333333 L4.66666667,6.66666667 L4.66666667,6.66666667 Z M8.66666667,6.66666667 L6.66666667,6.66666667 L6.66666667,11.3333333 L8.66666667,11.3333333 L8.66666667,6.66666667 L8.66666667,6.66666667 Z M14,12.6666667 L1.33333333,12.6666667 L1.33333333,14 L14,14 L14,12.6666667 L14,12.6666667 Z M12.6666667,6.66666667 L10.6666667,6.66666667 L10.6666667,11.3333333 L12.6666667,11.3333333 L12.6666667,6.66666667 L12.6666667,6.66666667 Z M7.66666667,2.17333333 L11.14,4 L4.19333333,4 L7.66666667,2.17333333 L7.66666667,2.17333333 Z M7.66666667,0.666666667 L1.33333333,4 L1.33333333,5.33333333 L14,5.33333333 L14,4 L7.66666667,0.666666667 L7.66666667,0.666666667 Z"/><path id="path-46" d="M2.66666667,8 L5.33333333,8 L5.33333333,13.3333333 L2.66666667,13.3333333 L2.66666667,8 Z M6.66666667,2.66666667 L9.33333333,2.66666667 L9.33333333,13.3333333 L6.66666667,13.3333333 L6.66666667,2.66666667 Z M10.6666667,6 L13.3333333,6 L13.3333333,13.3333333 L10.6666667,13.3333333 L10.6666667,6 Z"/><path id="path-48" d="M8,9.33333333 C9.10666667,9.33333333 10,8.44 10,7.33333333 L10,3.33333333 C10,2.22666667 9.10666667,1.33333333 8,1.33333333 C6.89333333,1.33333333 6,2.22666667 6,3.33333333 L6,7.33333333 C6,8.44 6.89333333,9.33333333 8,9.33333333 Z M11.3333333,7.33333333 C11.3333333,9.17333333 9.84,10.6666667 8,10.6666667 C6.16,10.6666667 4.66666667,9.17333333 4.66666667,7.33333333 L3.33333333,7.33333333 C3.33333333,9.68666667 5.07333333,11.62 7.33333333,11.9466667 L7.33333333,14 L8.66666667,14 L8.66666667,11.9466667 C10.9266667,11.62 12.6666667,9.68666667 12.6666667,7.33333333 L11.3333333,7.33333333 Z"/><path id="path-50" d="M11.6666667,4.66666667 C10.0066667,4.66666667 8.66666667,6.00666667 8.66666667,7.66666667 C8.66666667,8.28666667 8.85333333,8.85333333 9.17333333,9.33333333 L6.82666667,9.33333333 C7.14666667,8.85333333 7.33333333,8.28666667 7.33333333,7.66666667 C7.33333333,6.00666667 5.99333333,4.66666667 4.33333333,4.66666667 C2.67333333,4.66666667 1.33333333,6.00666667 1.33333333,7.66666667 C1.33333333,9.32666667 2.67333333,10.6666667 4.33333333,10.6666667 L11.6666667,10.6666667 C13.3266667,10.6666667 14.6666667,9.32666667 14.6666667,7.66666667 C14.6666667,6.00666667 13.3266667,4.66666667 11.6666667,4.66666667 Z M2.66666667,7.66666667 C2.66666667,6.74666667 3.41333333,6 4.33333333,6 C5.25333333,6 6,6.74666667 6,7.66666667 C6,8.58666667 5.25333333,9.33333333 4.33333333,9.33333333 C3.41333333,9.33333333 2.66666667,8.58666667 2.66666667,7.66666667 Z M11.6666667,9.33333333 C10.7466667,9.33333333 10,8.58666667 10,7.66666667 C10,6.74666667 10.7466667,6 11.6666667,6 C12.5866667,6 13.3333333,6.74666667 13.3333333,7.66666667 C13.3333333,8.58666667 12.5866667,9.33333333 11.6666667,9.33333333 Z"/><path id="path-52" d="M13.3333333,1.33333333 L2.66666667,1.33333333 C1.93333333,1.33333333 1.33333333,1.93333333 1.33333333,2.66666667 L1.33333333,14.6666667 L4,12 L13.3333333,12 C14.0666667,12 14.6666667,11.4 14.6666667,10.6666667 L14.6666667,2.66666667 C14.6666667,1.93333333 14.0666667,1.33333333 13.3333333,1.33333333 Z"/><path id="path-54" d="M14.6333333,7.33333333 L14.6333333,7.33333333 C14.32,4.19333333 11.8066667,1.68 8.66666667,1.36666667 L8.66666667,1.36666667 C8.44666667,1.34666667 8.22666667,1.33333333 8,1.33333333 C4.32666667,1.33333333 1.33333333,4.32666667 1.33333333,8 C1.33333333,8.22666667 1.34666667,8.44666667 1.36666667,8.66666667 L1.36666667,8.66666667 C1.68,11.8066667 4.18666667,14.3133333 7.33333333,14.6333333 L7.33333333,14.6333333 C7.55333333,14.6533333 7.77333333,14.6666667 8,14.6666667 C11.6733333,14.6666667 14.6666667,11.6733333 14.6666667,8 C14.6666667,7.77333333 14.6533333,7.55333333 14.6333333,7.33333333 Z M6.96666667,9.98 L8,8.94 L11.2666667,12.2066667 C10.4933333,12.8066667 9.56,13.2066667 8.53333333,13.3066667 C8.3,12.06 7.74666667,10.92 6.96666667,9.98 Z M9.03333333,6.02 L8,7.06 L4.73333333,3.79333333 C5.50666667,3.19333333 6.44,2.79333333 7.46666667,2.69333333 C7.7,3.94 8.25333333,5.08 9.03333333,6.02 Z M7.06,8 L6.02666667,9.03333333 C5.08666667,8.24666667 3.94666667,7.7 2.7,7.46666667 C2.8,6.44 3.2,5.50666667 3.8,4.73333333 L7.06,8 Z M8.94,8 L9.97333333,6.96666667 C10.9133333,7.75333333 12.0533333,8.3 13.3,8.53333333 C13.2,9.56 12.8,10.4933333 12.2,11.2666667 L8.94,8 Z M10.9266667,6.01333333 L12.2066667,4.73333333 C12.7466667,5.42666667 13.1133333,6.25333333 13.26,7.16 C12.3933333,6.94666667 11.6,6.55333333 10.9266667,6.01333333 Z M11.2666667,3.79333333 L9.98666667,5.07333333 C9.44666667,4.4 9.05333333,3.60666667 8.84666667,2.74 C9.74666667,2.88666667 10.5733333,3.25333333 11.2666667,3.79333333 Z M5.07333333,9.98666667 L3.79333333,11.2666667 C3.25333333,10.5733333 2.88666667,9.74666667 2.74,8.84 C3.60666667,9.05333333 4.4,9.44666667 5.07333333,9.98666667 Z M4.73333333,12.2066667 L6.01333333,10.9266667 C6.55333333,11.6 6.94666667,12.3933333 7.15333333,13.26 C6.25333333,13.1133333 5.42666667,12.7466667 4.73333333,12.2066667 Z"/><polygon id="path-56" points="14.667 7.333 11.887 7.333 14.047 5.173 13.107 4.227 10 7.333 8.667 7.333 8.667 6 11.773 2.893 10.827 1.953 8.667 4.113 8.667 1.333 7.333 1.333 7.333 4.113 5.173 1.953 4.227 2.893 7.333 6 7.333 7.333 6 7.333 2.893 4.227 1.953 5.173 4.113 7.333 1.333 7.333 1.333 8.667 4.113 8.667 1.953 10.827 2.893 11.773 6 8.667 7.333 8.667 7.333 10 4.227 13.107 5.173 14.047 7.333 11.887 7.333 14.667 8.667 14.667 8.667 11.887 10.827 14.047 11.773 13.107 8.667 10 8.667 8.667 10 8.667 13.107 11.773 14.047 10.827 11.887 8.667 14.667 8.667"/><path id="path-58" d="M14,10.6666667 L14,9.33333333 L8.66666667,6 L8.66666667,2.33333333 C8.66666667,1.78 8.22,1.33333333 7.66666667,1.33333333 C7.11333333,1.33333333 6.66666667,1.78 6.66666667,2.33333333 L6.66666667,6 L1.33333333,9.33333333 L1.33333333,10.6666667 L6.66666667,9 L6.66666667,12.6666667 L5.33333333,13.6666667 L5.33333333,14.6666667 L7.66666667,14 L10,14.6666667 L10,13.6666667 L8.66666667,12.6666667 L8.66666667,9 L14,10.6666667 Z"/><path id="path-60" d="M10.3333333,4.72 C10.3333333,5.9 9.77333333,6.88666667 9,7.26666667 L9,14 L7.66666667,14 L7.66666667,7.26666667 C6.89333333,6.88666667 6.33333333,5.9 6.33333333,4.72 C6.34,3.22 7.23333333,2 8.33333333,2 C9.44,2 10.3333333,3.22 10.3333333,4.72 Z M11.3333333,2 L11.3333333,14 L12.6666667,14 L12.6666667,8.66666667 L14,8.66666667 L14,4.66666667 C14,3.49333333 13.1733333,2 11.3333333,2 Z M5.52,2 C5.25333333,2 5.04,2.21333333 5.04,2.48 L5.04,4.66666667 L4.48,4.66666667 L4.48,2.48 C4.48,2.21333333 4.26666667,2 4,2 C3.73333333,2 3.52,2.21333333 3.52,2.48 L3.52,4.66666667 L2.96,4.66666667 L2.96,2.48 C2.96,2.21333333 2.74666667,2 2.48,2 C2.21333333,2 2,2.21333333 2,2.48 L2,4.66666667 L2,6 C2,6.73333333 2.6,7.33333333 3.33333333,7.33333333 L3.33333333,14 L4.66666667,14 L4.66666667,7.33333333 C5.4,7.33333333 6,6.73333333 6,6 L6,4.66666667 L6,2.48 C6,2.21333333 5.78666667,2 5.52,2 Z"/><polygon id="path-62" points="4.667 1.333 4.667 8.667 6.667 8.667 6.667 14.667 11.333 6.667 8.667 6.667 10.667 1.333"/><path id="path-64" d="M8,2 L8,9.03333333 C7.60666667,8.80666667 7.15333333,8.66666667 6.66666667,8.66666667 C5.19333333,8.66666667 4,9.86 4,11.3333333 C4,12.8066667 5.19333333,14 6.66666667,14 C8.14,14 9.33333333,12.8066667 9.33333333,11.3333333 L9.33333333,4.66666667 L12,4.66666667 L12,2 L8,2 Z"/><path id="path-66" d="M10.4866667,8.32 C10.0666667,7.89333333 9.47333333,7.54666667 8.70666667,7.28 L8.14666667,7.09333333 C7.61333333,6.91333333 7.22,6.72 6.97333333,6.52 C6.72666667,6.31333333 6.6,6.06 6.6,5.75333333 C6.6,5.42666667 6.74,5.16 7.02,4.95333333 C7.3,4.74666667 7.64,4.64 8.04666667,4.64 C8.45333333,4.64 8.78666667,4.74666667 9.04666667,4.96666667 C9.30666667,5.18 9.48,5.43333333 9.57333333,5.71333333 L10.8333333,5.18 C10.6733333,4.70666667 10.36,4.28 9.9,3.9 C9.56666667,3.63333333 9.15333333,3.46666667 8.66666667,3.38666667 L8.66666667,2 L7.33333333,2 L7.33333333,3.40666667 C7.06,3.46 6.80666667,3.54666667 6.57333333,3.66666667 C6.14,3.88666667 5.80666667,4.18 5.56666667,4.55333333 C5.32666667,4.93333333 5.20666667,5.34 5.20666667,5.78 C5.20666667,6.42 5.41333333,6.93333333 5.82,7.32666667 C6.22666667,7.72 6.73333333,8.02 7.32666667,8.22666667 L7.88666667,8.42666667 C8.56,8.66666667 9.03333333,8.90666667 9.3,9.14666667 C9.57333333,9.38666667 9.70666667,9.68666667 9.70666667,10.0533333 C9.70666667,10.4533333 9.55333333,10.7666667 9.24666667,10.9933333 C8.94,11.22 8.56666667,11.3333333 8.12666667,11.3333333 C7.65333333,11.3333333 7.24666667,11.18 6.90666667,10.8666667 C6.57333333,10.5533333 6.33333333,10.1533333 6.2,9.66 L4.88,10.1933333 C5.10666667,10.9733333 5.51333333,11.58 6.1,12.0133333 C6.48,12.2933333 6.89333333,12.4666667 7.33333333,12.5666667 L7.33333333,14 L8.66666667,14 L8.66666667,12.6133333 C8.96,12.5666667 9.24666667,12.5 9.52666667,12.38 C9.98666667,12.1866667 10.3666667,11.8933333 10.6666667,11.5 C10.9666667,11.1066667 11.1133333,10.6133333 11.1133333,10.0333333 C11.12,9.32 10.9066667,8.74666667 10.4866667,8.32 Z"/><linearGradient id="linearGradient-68" x1="50%" x2="50%" y1="110.675%" y2="29.331%"><stop offset="0%" stop-color="#BDC1C6"/><stop offset="100%" stop-color="#E8EAED"/></linearGradient></defs><g id="Illustrations" fill="none" fill-rule="evenodd" stroke="none" stroke-width="1"><g id="Publish-Copy" transform="translate(-160.000000, -38.000000)"><g id="04-Publish" transform="translate(160.000000, 38.000000)"><g id="icon" transform="translate(304.000000, 60.000000)"><circle id="Oval-Copy-5" cx="30" cy="30" r="30" fill="#1A73E8"/><g id="editor/publish_24px" transform="translate(10.000000, 10.000000)"><mask id="mask-2" fill="#fff"><use xlink:href="#path-1"/></mask><g id="Group" fill="#FFF" fill-rule="nonzero" mask="url(#mask-2)"><g id="↪︎-Icon-color"><rect id="_Color/01_Grey/000-White" width="40" height="40" x="0" y="0"/></g></g></g></g><g id="Apps" transform="translate(0.000000, 23.000000)"><rect id="Rectangle" width="62" height="62" x="0" y="0" fill="url(#linearGradient-3)" rx="12"/><rect id="Rectangle-Copy-17" width="62" height="62" x="140" y="72" fill="url(#linearGradient-3)" rx="12"/><rect id="Rectangle-Copy-2" width="62" height="62" x="70" y="0" fill="url(#linearGradient-4)" rx="12"/><rect id="Rectangle-Copy-18" width="62" height="62" x="210" y="72" fill="url(#linearGradient-4)" rx="12"/><rect id="Rectangle-Copy-5" width="62" height="62" x="210" y="0" fill="url(#linearGradient-5)" rx="12"/><rect id="Rectangle-Copy-14" width="62" height="62" x="70" y="72" fill="url(#linearGradient-5)" rx="12"/><rect id="Rectangle-Copy-15" width="62" height="62" x="140" y="0" fill="url(#linearGradient-6)" rx="12"/><rect id="Rectangle-Copy-16" width="62" height="62" x="0" y="72" fill="url(#linearGradient-6)" rx="12"/><g id="action/account_balance_24px" transform="translate(15.000000, 15.000000)"><mask id="mask-8" fill="#fff"><use xlink:href="#path-7"/></mask><g id="Group" fill="#FFF" fill-rule="nonzero" mask="url(#mask-8)"><g id="↪︎-Icon-color"><rect id="_Color/01_Grey/000-White" width="32" height="32" x="0" y="0"/></g></g></g><g id="av/equalizer_24px" transform="translate(85.000000, 15.000000)"><mask id="mask-10" fill="#fff"><use xlink:href="#path-9"/></mask><g id="Group" fill="#FFF" fill-rule="nonzero" mask="url(#mask-10)"><g id="↪︎-Icon-color"><rect id="_Color/01_Grey/000-White" width="32" height="32" x="0" y="0"/></g></g></g><g id="places/ac_unit_24px" transform="translate(155.000000, 87.000000)"><mask id="mask-12" fill="#fff"><use xlink:href="#path-11"/></mask><g id="Group" fill="#FFF" fill-rule="nonzero" mask="url(#mask-12)"><g id="↪︎-Icon-color"><rect id="_Color/01_Grey/000-White" width="32" height="32" x="0" y="0"/></g></g></g><g id="maps/flight_24px" transform="translate(85.000000, 87.000000)"><mask id="mask-14" fill="#fff"><use xlink:href="#path-13"/></mask><g id="Group" fill="#FFF" fill-rule="nonzero" mask="url(#mask-14)"><g id="↪︎-Icon-color"><rect id="_Color/01_Grey/000-White" width="32" height="32" x="0" y="0"/></g></g></g><g id="places/flatware_24px" transform="translate(155.000000, 15.000000)"><mask id="mask-16" fill="#fff"><use xlink:href="#path-15"/></mask><g id="Group" fill="#FFF" fill-rule="nonzero" mask="url(#mask-16)"><g id="↪︎-Icon-color"><rect id="_Color/01_Grey/000-White" width="32" height="32" x="0" y="0"/></g></g></g><g id="image/flash_on_24px" transform="translate(225.000000, 15.000000)"><mask id="mask-18" fill="#fff"><use xlink:href="#path-17"/></mask><g id="Group" fill="#FFF" fill-rule="nonzero" mask="url(#mask-18)"><g id="↪︎-Icon-color"><rect id="_Color/01_Grey/000-White" width="32" height="32" x="0" y="0"/></g></g></g><g id="image/audiotrack_24px" transform="translate(225.000000, 87.000000)"><mask id="mask-20" fill="#fff"><use xlink:href="#path-19"/></mask><g id="Group" fill="#FFF" fill-rule="nonzero" mask="url(#mask-20)"><g id="↪︎-Icon-color"><rect id="_Color/01_Grey/000-White" width="32" height="32" x="0" y="0"/></g></g></g><g id="editor/attach_money_24px" transform="translate(15.000000, 87.000000)"><mask id="mask-22" fill="#fff"><use xlink:href="#path-21"/></mask><g id="Group" fill="#FFF" fill-rule="nonzero" mask="url(#mask-22)"><g id="↪︎-Icon-color"><rect id="_Color/01_Grey/000-White" width="32" height="32" x="0" y="0"/></g></g></g></g><g id="Laptop-Frame" transform="translate(370.000000, 0.000000)"><path id="frame-bottom" fill="#E8EAED" fill-rule="nonzero" d="M299.71893,0 L29.2810699,0 C26.9167003,0 25,1.92986653 25,4.31047754 L25,175 L304,175 L304,4.31047754 C304,1.92986653 302.0833,0 299.71893,0 Z M295.926636,162.279103 L32.8694936,162.279103 L32.8694936,13.4352351 L295.926636,13.4352351 L295.926636,162.279103 Z"/><g id="DESIGN-HERE" transform="translate(29.000000, 12.000000)"><mask id="mask-24" fill="#fff"><use xlink:href="#path-23"/></mask><use id="Mask" fill="#FFF" xlink:href="#path-23"/><rect id="Rectangle" width="38.571" height="155" x="3.506" y=".334" fill="#F1F3F4" mask="url(#mask-24)"/><g id="play_prism_24dp" fill-rule="nonzero" mask="url(#mask-24)"><g transform="translate(15.000000, 8.000000)"><polygon id="Path" fill="#FFF" points="0 0 16 0 16 16 0 16" opacity="0"/><path id="Path" fill="url(#linearGradient-25)" d="M1.93083333,0.893333333 C1.765,1.06916667 1.66666667,1.34083333 1.66666667,1.69416667 L1.66666667,14.305 C1.66666667,14.6583333 1.765,14.9308333 1.93083333,15.1058333 L1.97333333,15.1466667 L9.0375,8.08333333 L9.0375,7.91666667 L1.9725,0.851666667 L1.93083333,0.893333333 Z"/><path id="Path" fill="url(#linearGradient-26)" d="M11.3916667,10.4391667 L9.0375,8.08333333 L9.0375,7.91666667 L11.3925,5.56166667 L11.4458333,5.59166667 L14.2358333,7.17666667 C15.0325,7.62916667 15.0325,8.37 14.2358333,8.82333333 L11.4458333,10.4083333 L11.3916667,10.4391667 Z"/><path id="Path" fill="url(#linearGradient-27)" d="M11.4458333,10.4083333 L9.0375,8 L1.93083333,15.1066667 C2.19333333,15.385 2.6275,15.4191667 3.11583333,15.1416667 L11.4458333,10.4083333"/><path id="Path" fill="url(#linearGradient-28)" d="M11.4458333,5.59166667 L3.11583333,0.858333333 C2.6275,0.580833333 2.19333333,0.615 1.93083333,0.893333333 L9.0375,8 L11.4458333,5.59166667 Z"/><path id="Path" fill="#000" d="M11.3925,10.3558333 L3.11583333,15.0583333 C2.6525,15.3216667 2.23916667,15.3041667 1.97333333,15.0641667 L1.93083333,15.1066667 L1.97333333,15.1475 C2.23916667,15.3866667 2.6525,15.405 3.11583333,15.1416667 L11.4458333,10.4083333 L11.3925,10.3558333 Z" opacity=".2"/><path id="Shape" fill="#000" d="M1.93083333,15.0233333 C1.765,14.8475 1.66666667,14.575 1.66666667,14.2225 L1.66666667,14.3058333 C1.66666667,14.6591667 1.765,14.9316667 1.93083333,15.1066667 L1.97333333,15.0641667 L1.93083333,15.0233333 L1.93083333,15.0233333 Z M14.2358333,8.74 L11.3925,10.3558333 L11.4458333,10.4091667 L14.2358333,8.82416667 C14.6341667,8.5975 14.8333333,8.29916667 14.8333333,8.00083333 C14.8,8.27 14.5966667,8.535 14.2358333,8.74 L14.2358333,8.74 Z" opacity=".12"/><path id="Path" fill="#FFF" d="M3.11583333,0.941666667 L14.2358333,7.26 C14.5975,7.465 14.8,7.73 14.8333333,8 C14.8333333,7.70166667 14.6341667,7.40333333 14.2358333,7.17666667 L3.11583333,0.858333333 C2.31833333,0.405833333 1.66666667,0.781666667 1.66666667,1.695 L1.66666667,1.77833333 C1.66666667,0.865 2.31833333,0.489166667 3.11583333,0.941666667 Z" opacity=".25"/></g></g><g id="Group" mask="url(#mask-24)"><g id="action/account_circle_filled_24px-copy" transform="translate(15.363636, 32.792790)"><mask id="mask-30" fill="#fff"><use xlink:href="#path-29"/></mask><g id="Group" fill="#5F6368" mask="url(#mask-30)"><g id="↳-Color"><rect id="_Color/01_Grey/700" width="14.026" height="14.005" x="0" y="0"/></g></g></g></g><g id="Group" mask="url(#mask-24)"><g id="action/account_circle_filled_24px-copy-3" transform="translate(15.363636, 99.817868)"><mask id="mask-32" fill="#fff"><use xlink:href="#path-31"/></mask><g id="Group" fill="#5F6368" mask="url(#mask-32)"><g id="↪︎-Icon-color"><rect id="swatch" width="14.026" height="14.005" x="0" y="0"/></g></g></g></g><g id="Group" mask="url(#mask-24)"><g id="action/account_circle_filled_24px-copy-4" transform="translate(15.363636, 77.476176)"><mask id="mask-34" fill="#fff"><use xlink:href="#path-33"/></mask><g id="Group" fill="#5F6368" mask="url(#mask-34)"><g id="↳-Color"><rect id="_Color/01_Grey/700" width="14.026" height="14.005" x="0" y="0"/></g></g></g></g><g id="Group" mask="url(#mask-24)"><g id="action/account_circle_filled_24px-copy-2" transform="translate(15.363636, 55.134483)"><mask id="mask-36" fill="#fff"><use xlink:href="#path-35"/></mask><g id="Group" fill="#5F6368" mask="url(#mask-36)"><g id="↪︎-Icon-color"><rect id="swatch" width="14.026" height="14.005" x="0" y="0"/></g></g></g></g><g id="Group" mask="url(#mask-24)"><g transform="translate(66.623377, 7.114420)"><rect id="Rectangle" width="26.883" height="26.843" x="0" y="75.861" fill="url(#linearGradient-37)" rx="4.364"/><rect id="Rectangle-Copy-13" width="184.675" height="39.681" x="0" y="26.843" fill="url(#linearGradient-38)" rx="4.364"/><rect id="Rectangle-Copy-3" width="26.883" height="26.843" x="126.234" y="75.861" fill="url(#linearGradient-37)" rx="4.364"/><rect id="Rectangle-Copy-7" width="26.883" height="26.843" x="63.117" y="108.539" fill="url(#linearGradient-37)" rx="4.364"/><rect id="Rectangle-Copy-2" width="26.883" height="26.843" x="31.558" y="75.861" fill="url(#linearGradient-39)" rx="4.364"/><rect id="Rectangle-Copy-6" width="26.883" height="26.843" x="157.792" y="75.861" fill="url(#linearGradient-39)" rx="4.364"/><rect id="Rectangle-Copy-8" width="26.883" height="26.843" x="94.675" y="108.539" fill="url(#linearGradient-39)" rx="4.364"/><rect id="Rectangle-Copy-5" width="26.883" height="26.843" x="63.117" y="75.861" fill="url(#linearGradient-40)" rx="4.364"/><rect id="Rectangle-Copy-11" width="26.883" height="26.843" x="126.234" y="108.539" fill="url(#linearGradient-40)" rx="4.364"/><rect id="Rectangle-Copy-9" width="26.883" height="26.843" x="0" y="108.539" fill="url(#linearGradient-40)" rx="4.364"/><rect id="Rectangle-Copy-4" width="26.883" height="26.843" x="94.675" y="75.861" fill="url(#linearGradient-41)" rx="4.364"/><rect id="Rectangle-Copy-12" width="26.883" height="26.843" x="157.792" y="108.539" fill="url(#linearGradient-41)" rx="4.364"/><rect id="Rectangle-Copy-10" width="26.883" height="26.843" x="31.558" y="108.539" fill="url(#linearGradient-41)" rx="4.364"/><rect id="Rectangle-Copy" width="184.675" height="18.673" x="0" y="0" fill="#F1F3F4" rx="9.337"/><g id="Group" fill="none" stroke-width="1" transform="translate(8.181818, 2.334169)"><g id="action/account_circle_filled_24px-copy-5"><mask id="mask-43" fill="#fff"><use xlink:href="#path-42"/></mask><g id="Group" fill="#5F6368" mask="url(#mask-43)"><g id="↪︎-Icon-color"><rect id="swatch" width="14.026" height="14.005" x="0" y="0"/></g></g></g></g></g></g><g id="Group" mask="url(#mask-24)"><g id="action/account_balance_24px-copy" transform="translate(72.000000, 88.000000)"><mask id="mask-45" fill="#fff"><use xlink:href="#path-44"/></mask><g id="Group" fill="#FFF" fill-rule="nonzero" mask="url(#mask-45)"><g id="↪︎-Icon-color"><rect id="_Color/01_Grey/000-White" width="16" height="16" x="0" y="0"/></g></g></g></g><g id="Group" mask="url(#mask-24)"><g id="av/equalizer_24px-copy" transform="translate(104.000000, 88.000000)"><mask id="mask-47" fill="#fff"><use xlink:href="#path-46"/></mask><g id="Group" fill="#FFF" fill-rule="nonzero" mask="url(#mask-47)"><g id="↪︎-Icon-color"><rect id="_Color/01_Grey/000-White" width="16" height="16" x="0" y="0"/></g></g></g></g><g id="Group" mask="url(#mask-24)"><g id="av/mic_24px" transform="translate(198.000000, 88.000000)"><mask id="mask-49" fill="#fff"><use xlink:href="#path-48"/></mask><g id="Group" fill="#FFF" fill-rule="nonzero" mask="url(#mask-49)"><g id="↪︎-Icon-color"><rect id="_Color/01_Grey/000-White" width="16" height="16" x="0" y="0"/></g></g></g></g><g id="Group" mask="url(#mask-24)"><g id="av/mic_24px-copy-2" transform="translate(198.000000, 121.000000)"><mask id="mask-51" fill="#fff"><use xlink:href="#path-50"/></mask><g id="Group" fill="#FFF" fill-rule="nonzero" mask="url(#mask-51)"><g id="↪︎-Icon-color"><rect id="_Color/01_Grey/000-White" width="16" height="16" x="0" y="0"/></g></g></g></g><g id="Group" mask="url(#mask-24)"><g id="av/mic_24px-copy" transform="translate(230.000000, 88.000000)"><mask id="mask-53" fill="#fff"><use xlink:href="#path-52"/></mask><g id="Group" fill="#FFF" fill-rule="nonzero" mask="url(#mask-53)"><g id="↪︎-Icon-color"><rect id="_Color/01_Grey/000-White" width="16" height="16" x="0" y="0"/></g></g></g></g><g id="Group" mask="url(#mask-24)"><g id="av/mic_24px-copy-3" transform="translate(230.000000, 121.000000)"><mask id="mask-55" fill="#fff"><use xlink:href="#path-54"/></mask><g id="Group" fill="#FFF" fill-rule="nonzero" mask="url(#mask-55)"><g id="↪︎-Icon-color"><rect id="_Color/01_Grey/000-White" width="16" height="16" x="0" y="0"/></g></g></g></g><g id="Group" mask="url(#mask-24)"><g id="places/ac_unit_24px-copy" transform="translate(135.000000, 121.000000)"><mask id="mask-57" fill="#fff"><use xlink:href="#path-56"/></mask><g id="Group" fill="#FFF" fill-rule="nonzero" mask="url(#mask-57)"><g id="↪︎-Icon-color"><rect id="_Color/01_Grey/000-White" width="16" height="16" x="0" y="0"/></g></g></g></g><g id="Group" mask="url(#mask-24)"><g id="maps/flight_24px-copy" transform="translate(104.000000, 121.000000)"><mask id="mask-59" fill="#fff"><use xlink:href="#path-58"/></mask><g id="Group" fill="#FFF" fill-rule="nonzero" mask="url(#mask-59)"><g id="↪︎-Icon-color"><rect id="_Color/01_Grey/000-White" width="16" height="16" x="0" y="0"/></g></g></g></g><g id="Group" mask="url(#mask-24)"><g id="places/flatware_24px-copy" transform="translate(135.000000, 88.000000)"><mask id="mask-61" fill="#fff"><use xlink:href="#path-60"/></mask><g id="Group" fill="#FFF" fill-rule="nonzero" mask="url(#mask-61)"><g id="↪︎-Icon-color"><rect id="_Color/01_Grey/000-White" width="16" height="16" x="0" y="0"/></g></g></g></g><g id="Group" mask="url(#mask-24)"><g id="image/flash_on_24px-copy" transform="translate(167.000000, 89.000000)"><mask id="mask-63" fill="#fff"><use xlink:href="#path-62"/></mask><g id="Group" fill="#FFF" fill-rule="nonzero" mask="url(#mask-63)"><g id="↪︎-Icon-color"><rect id="_Color/01_Grey/000-White" width="16" height="16" x="0" y="0"/></g></g></g></g><g id="Group" mask="url(#mask-24)"><g id="image/audiotrack_24px-copy" transform="translate(167.000000, 121.000000)"><mask id="mask-65" fill="#fff"><use xlink:href="#path-64"/></mask><g id="Group" fill="#FFF" fill-rule="nonzero" mask="url(#mask-65)"><g id="↪︎-Icon-color"><rect id="_Color/01_Grey/000-White" width="16" height="16" x="0" y="0"/></g></g></g></g><g id="Group" mask="url(#mask-24)"><g id="editor/attach_money_24px-copy" transform="translate(72.000000, 121.000000)"><mask id="mask-67" fill="#fff"><use xlink:href="#path-66"/></mask><g id="Group" fill="#FFF" fill-rule="nonzero" mask="url(#mask-67)"><g id="↪︎-Icon-color"><rect id="_Color/01_Grey/000-White" width="16" height="16" x="0" y="0"/></g></g></g></g></g><g id="frame-top" fill-rule="nonzero" transform="translate(0.000000, 1.000000)"><path id="top" fill="url(#linearGradient-68)" d="M299.676082,0 L30.323918,0 C27.935884,0 26,1.92763578 26,4.30549502 L26,173.48454 L304,173.48454 L304,4.30459804 C304,1.9270891 302.063764,0 299.676082,0 Z M297,161.45093 L33,161.45093 L33,12.0336097 L297,12.0336097 L297,161.45093 Z"/><g id="base" transform="translate(0.000000, 173.329379)"><path id="laptop-bottom" fill="#DADCE0" d="M2.84217094e-14,0 L2.84217094e-14,4.67591007 C2.84217094e-14,5.05897027 0.153659341,5.42557803 0.4219137,5.69508134 C0.690168059,5.96458466 1.05293477,6.11490649 1.43040685,6.11297673 L132.459251,5.93152892 C132.459251,5.93152892 135.204738,5.42710401 135.795675,5.42710401 L196.000605,5.42710401 C196.000605,5.42710401 199.543544,5.3363801 200.960541,5.99049946 L332.569593,6.17196601 C333.355292,6.17596669 333.995568,5.53311546 334,4.73578785 L334,0 L2.84217094e-14,0 Z"/><rect id="shadow" width="334" height="1.029" x="0" y="0" fill="#BDC1C6"/><path id="bezel" fill="#E8EAED" d="M132.204917,6.17196601 L132.165644,0.957818167 C132.165644,0.957818167 132.823471,0.514330501 134.754109,0.514330501 L197.250366,0.514330501 C197.250366,0.514330501 199.431817,0.64466157 199.785276,0.98316032 L199.785276,5.98642526 C199.785276,5.98642526 197.989417,5.68050927 196.467578,5.69589558 L136.680284,5.77011188 C136.680284,5.77011188 135.589559,5.6796042 135.240562,5.70947173 L132.204917,6.17196601 Z"/></g></g></g></g></g></g></svg>