<svg xmlns="http://www.w3.org/2000/svg" xmlns:xlink="http://www.w3.org/1999/xlink" id="Layer_1" x="0" y="0" version="1.1" viewBox="0 0 107.6 107.6" xml:space="preserve" style="enable-background:new 0 0 107.6 107.6"><style type="text/css">.st0{clip-path:url(#SVGID_2_)}.st1{fill:#db4437}.st2{fill:url(#SVGID_3_)}.st3{clip-path:url(#SVGID_5_)}.st4{fill:#3e2723;fill-opacity:.15}.st5{clip-path:url(#SVGID_7_)}.st6{fill:#0f9d58}.st7{fill:url(#SVGID_8_)}.st8{fill:#263238;fill-opacity:.15}.st9{clip-path:url(#SVGID_10_)}.st10{clip-path:url(#SVGID_12_)}.st11{fill:#ffcd40}.st12{fill:url(#SVGID_13_)}.st13{clip-path:url(#SVGID_15_)}.st14{fill:url(#SVGID_16_)}.st15{clip-path:url(#SVGID_18_)}.st16{clip-path:url(#SVGID_20_)}.st17{fill:url(#SVGID_21_)}.st18{fill:url(#SVGID_22_)}.st19{clip-path:url(#SVGID_24_)}.st20{clip-path:url(#SVGID_26_)}.st21{fill:url(#SVGID_27_)}.st22{fill:url(#SVGID_28_)}.st23{fill:url(#SVGID_29_)}.st24{clip-path:url(#SVGID_31_)}.st25{fill:#f1f1f1}.st26{fill:#4285f4}.st27{clip-path:url(#SVGID_33_)}.st28{fill:none}.st29{clip-path:url(#SVGID_35_)}.st30{fill:url(#SVGID_36_)}.st31{clip-path:url(#SVGID_38_)}.st32{fill:#424242}.st33{fill:#fff}</style><g><g><defs><circle id="SVGID_1_" cx="53.7" cy="53.8" r="43.1"/></defs><clipPath id="SVGID_2_"><use xlink:href="#SVGID_1_" style="overflow:visible"/></clipPath><g class="st0"><path d="M17.5,10.8v52.8h19.3l17-29.4h43V10.8H17.5z" class="st1"/><linearGradient id="SVGID_3_" x1="1767.049" x2="1776.679" y1="3040.732" y2="3035.102" gradientTransform="matrix(2.67 0 0 2.67 -4696.4731 -8075.4907)" gradientUnits="userSpaceOnUse"><stop offset="0" style="stop-color:#a52714;stop-opacity:.6"/><stop offset=".66" style="stop-color:#a52714;stop-opacity:0"/></linearGradient><path d="M17.5,10.8v52.8h19.3l17-29.4h43V10.8H17.5z" class="st2"/></g></g></g><g><g><defs><circle id="SVGID_4_" cx="53.7" cy="53.8" r="43.1"/></defs><clipPath id="SVGID_5_"><use xlink:href="#SVGID_4_" style="overflow:visible"/></clipPath><g class="st3"><path d="M37.2,63.5L17.7,30l-0.3,0.5l19.4,33.2L37.2,63.5z" class="st4"/></g></g></g><g><g><defs><circle id="SVGID_6_" cx="53.7" cy="53.8" r="43.1"/></defs><clipPath id="SVGID_7_"><use xlink:href="#SVGID_6_" style="overflow:visible"/></clipPath><g class="st5"><path d="M10.6,96.9h41l19-19V63.5H36.7L10.6,18.8V96.9z" class="st6"/><linearGradient id="SVGID_8_" x1="1785.031" x2="1774.331" y1="3059.095" y2="3052.835" gradientTransform="matrix(2.67 0 0 2.67 -4696.4731 -8075.4907)" gradientUnits="userSpaceOnUse"><stop offset="0" style="stop-color:#055524;stop-opacity:.4"/><stop offset=".33" style="stop-color:#055524;stop-opacity:0"/></linearGradient><path d="M10.6,96.9h41l19-19V63.5H36.7L10.6,18.8V96.9z" class="st7"/></g></g></g><path d="M70.3,64.3L69.9,64L51.1,96.9h0.6L70.3,64.3L70.3,64.3z" class="st8"/><g><g><defs><circle id="SVGID_9_" cx="53.7" cy="53.8" r="43.1"/></defs><clipPath id="SVGID_10_"><use xlink:href="#SVGID_9_" style="overflow:visible"/></clipPath><g class="st9"><g><g><defs><polygon id="SVGID_11_" points="10.6 96.9 51.6 96.9 70.7 77.9 70.7 63.5 36.7 63.5 10.6 18.8"/></defs><clipPath id="SVGID_12_"><use xlink:href="#SVGID_11_" style="overflow:visible"/></clipPath><g class="st10"><path d="M53.7,34.2l16.9,29.4L51.6,97h45.1V34.2H53.7z" class="st11"/><linearGradient id="SVGID_13_" x1="1784.674" x2="1787.364" y1="3039.988" y2="3051.789" gradientTransform="matrix(2.67 0 0 2.67 -4696.4731 -8075.4907)" gradientUnits="userSpaceOnUse"><stop offset="0" style="stop-color:#ea6100;stop-opacity:.3"/><stop offset=".66" style="stop-color:#ea6100;stop-opacity:0"/></linearGradient><path d="M53.7,34.2l16.9,29.4L51.6,97h45.1V34.2H53.7z" class="st12"/></g></g></g><g><g><defs><circle id="SVGID_14_" cx="53.7" cy="53.8" r="43.1"/></defs><clipPath id="SVGID_15_"><use xlink:href="#SVGID_14_" style="overflow:visible"/></clipPath><g class="st13"><path d="M53.7,34.2l16.9,29.4L51.6,97h45.1V34.2H53.7z" class="st11"/><linearGradient id="SVGID_16_" x1="1784.674" x2="1787.364" y1="3039.988" y2="3051.789" gradientTransform="matrix(2.67 0 0 2.67 -4696.4731 -8075.4907)" gradientUnits="userSpaceOnUse"><stop offset="0" style="stop-color:#ea6100;stop-opacity:.3"/><stop offset=".66" style="stop-color:#ea6100;stop-opacity:0"/></linearGradient><path d="M53.7,34.2l16.9,29.4L51.6,97h45.1V34.2H53.7z" class="st14"/></g></g></g><g><g><defs><circle id="SVGID_17_" cx="53.7" cy="53.8" r="43.1"/></defs><clipPath id="SVGID_18_"><use xlink:href="#SVGID_17_" style="overflow:visible"/></clipPath><g class="st15"><g><g><defs><polygon id="SVGID_19_" points="53.7 34.2 70.7 63.5 51.6 96.9 96.8 96.9 96.8 34.2"/></defs><clipPath id="SVGID_20_"><use xlink:href="#SVGID_19_" style="overflow:visible"/></clipPath><g class="st16"><path d="M17.5,10.8v52.8h19.3l17-29.4h43V10.8H17.5z" class="st1"/><linearGradient id="SVGID_21_" x1="1767.049" x2="1776.679" y1="3040.732" y2="3035.102" gradientTransform="matrix(2.67 0 0 2.67 -4696.4731 -8075.4907)" gradientUnits="userSpaceOnUse"><stop offset="0" style="stop-color:#a52714;stop-opacity:.6"/><stop offset=".66" style="stop-color:#a52714;stop-opacity:0"/></linearGradient><path d="M17.5,10.8v52.8h19.3l17-29.4h43V10.8H17.5z" class="st17"/></g></g></g><radialGradient id="SVGID_22_" cx="2356.661" cy="3040.795" r="15.43" gradientTransform="matrix(2.67 0 0 2.67 -6232.4731 -8075.4907)" gradientUnits="userSpaceOnUse"><stop offset="0" style="stop-color:#3e2723;stop-opacity:.2"/><stop offset="1" style="stop-color:#3e2723;stop-opacity:0"/></radialGradient><path d="M53.7,34.2v10.3l38.4-10.3H53.7z" class="st18"/><g><g><defs><circle id="SVGID_23_" cx="53.7" cy="53.8" r="43.1"/></defs><clipPath id="SVGID_24_"><use xlink:href="#SVGID_23_" style="overflow:visible"/></clipPath><g class="st19"><g><g><defs><polygon id="SVGID_25_" points="17.5 10.8 17.5 30.5 36.7 63.5 53.7 34.2 96.8 34.2 96.8 10.8"/></defs><clipPath id="SVGID_26_"><use xlink:href="#SVGID_25_" style="overflow:visible"/></clipPath><g class="st20"><path d="M10.6,96.9h41l19-19V63.5H36.7L10.6,18.8V96.9z" class="st6"/><linearGradient id="SVGID_27_" x1="1785.031" x2="1774.331" y1="3059.095" y2="3052.835" gradientTransform="matrix(2.67 0 0 2.67 -4696.4731 -8075.4907)" gradientUnits="userSpaceOnUse"><stop offset="0" style="stop-color:#055524;stop-opacity:.4"/><stop offset=".33" style="stop-color:#055524;stop-opacity:0"/></linearGradient><path d="M10.6,96.9h41l19-19V63.5H36.7L10.6,18.8V96.9z" class="st21"/></g></g></g><radialGradient id="SVGID_28_" cx="2388.166" cy="2941.83" r="14.32" gradientTransform="matrix(1 0 0 -1 3.91 183.81)" gradientUnits="userSpaceOnUse"><stop offset="0" style="stop-color:#3e2723;stop-opacity:.2"/><stop offset="1" style="stop-color:#3e2723;stop-opacity:0"/></radialGradient><path d="M17.5,30.6l28,28l-8.7,5L17.5,30.6z" class="st22"/><radialGradient id="SVGID_29_" cx="2357.331" cy="3048.165" r="16.12" gradientTransform="matrix(2.67 0 0 2.67 -6232.4731 -8075.4907)" gradientUnits="userSpaceOnUse"><stop offset="0" style="stop-color:#263238;stop-opacity:.2"/><stop offset="1" style="stop-color:#263238;stop-opacity:0"/></radialGradient><path d="M51.6,96.8l10.3-38.3l8.7,5L51.6,96.8z" class="st23"/><g><g><defs><circle id="SVGID_30_" cx="53.7" cy="53.8" r="43.1"/></defs><clipPath id="SVGID_31_"><use xlink:href="#SVGID_30_" style="overflow:visible"/></clipPath><g class="st24"><circle cx="53.7" cy="53.8" r="19.6" class="st25"/><circle cx="53.7" cy="53.8" r="15.7" class="st26"/></g></g></g><g><g><defs><circle id="SVGID_32_" cx="53.7" cy="53.8" r="43.1"/></defs><clipPath id="SVGID_33_"><use xlink:href="#SVGID_32_" style="overflow:visible"/></clipPath><g class="st27"><path d="M53.7,410.8" class="st28"/><path d="M53.7,410.8" class="st28"/><path d="M53.7,410.8" class="st28"/><path d="M53.7,410.8" class="st28"/></g></g></g><g><g><defs><circle id="SVGID_34_" cx="53.7" cy="53.8" r="43.1"/></defs><clipPath id="SVGID_35_"><use xlink:href="#SVGID_34_" style="overflow:visible"/></clipPath><g class="st29"><path d="M53.7,410.8" class="st28"/><path d="M53.7,410.8" class="st28"/></g></g></g><radialGradient id="SVGID_36_" cx="1770.041" cy="3036.394" r="32.43" gradientTransform="matrix(2.67 0 0 2.67 -4696.4727 -8075.4902)" gradientUnits="userSpaceOnUse"><stop offset="0" style="stop-color:#fff;stop-opacity:.1"/><stop offset="1" style="stop-color:#fff;stop-opacity:0"/></radialGradient><circle cx="53.7" cy="53.8" r="43.1" class="st30"/></g></g></g><path d="M6.7,6.9h93.9v93.9H6.7V6.9z" class="st28"/></g></g></g></g></g></g><g><g><defs><circle id="SVGID_37_" cx="53.7" cy="53.8" r="43"/></defs><clipPath id="SVGID_38_"><use xlink:href="#SVGID_37_" style="overflow:visible"/></clipPath><g class="st31"><rect width="86.2" height="35.9" x="10.6" y="61" class="st32"/></g></g></g><path d="M53,80.1c-2.4,2.4-6.3,2.4-8.7,0c-2.3-2.5-2.3-6.3,0-8.8c2.4-2.4,6.3-2.4,8.7,0l0,0	C55.4,73.8,55.4,77.7,53,80.1L53,80.1z M45.5,79.1c1.8,1.8,4.7,1.8,6.5,0c1.7-1.9,1.7-4.9,0-6.8c-1.8-1.8-4.7-1.8-6.4,0l0,0	C43.7,74.3,43.7,77.2,45.5,79.1z" class="st33"/><path d="M60,81.9c-0.9,0-1.8-0.3-2.5-0.8c-0.8-0.5-1.4-1.4-1.6-2.3l1.4-0.6c0.2,0.6,0.5,1.2,1,1.7	c0.5,0.4,1.1,0.7,1.7,0.7c0.6,0,1.2-0.2,1.7-0.6c0.5-0.3,0.7-0.9,0.7-1.4c0-0.6-0.2-1.2-0.7-1.5c-0.7-0.5-1.4-0.8-2.2-1	c-0.9-0.2-1.7-0.7-2.4-1.2c-0.5-0.5-0.8-1.2-0.8-2s0.4-1.7,1-2.2c0.7-0.6,1.7-1,2.6-0.9c0.9,0,1.8,0.2,2.5,0.8c0.6,0.4,1,1,1.2,1.7	l-1.4,0.6c-0.1-0.4-0.4-0.7-0.7-1c-0.4-0.3-1-0.5-1.5-0.5s-1.1,0.2-1.5,0.5s-0.6,0.7-0.6,1.2c0,0.4,0.2,0.9,0.6,1.1	c0.5,0.4,1.1,0.6,1.7,0.8c0.5,0.2,1,0.3,1.5,0.5c0.4,0.2,0.8,0.4,1.2,0.7c0.4,0.3,0.7,0.7,0.9,1.1c0.2,0.5,0.3,1,0.3,1.5	s-0.1,1.1-0.4,1.5c-0.2,0.4-0.5,0.7-0.9,1s-0.8,0.5-1.3,0.6C60.9,81.9,60.4,82,60,81.9z" class="st33"/></svg>